<svg class="w-100 d-block d-md-none" id="Layer_1" data-name="Layer 1" xmlns="http://www.w3.org/2000/svg" viewBox="0 0 936.95 1638.94">
  <defs>
    <style>
      .cls-1 {
        fill: #666;
        font-family: Teko-Light, Teko;
        font-size: 57.5px;
        font-weight: 300;
      }

      .cls-2 {
        fill: #fff;
      }

      .cls-3 {
        fill: #999;
      }

      .cls-4 {
        fill: #75f;
      }

      .cls-5 {
        fill: none;
        stroke: #999;
        stroke-dasharray: 0 0 5.29 10.56;
        stroke-linecap: round;
        stroke-linejoin: round;
        stroke-width: 2.65px;
      }

      .cls-6 {
        fill: #222;
        font-family: Teko-Regular, Teko;
        font-size: 71.87px;
      }
    </style>
  </defs>
  <g>
    <g>
      <text class="cls-1" transform="translate(139.44 53.26)"><tspan x="0" y="0">Programming Languages:</tspan></text>
      <text class="cls-6" transform="translate(139.44 121.1)"><tspan x="0" y="0">PHP, JavaScript, HTML5, CSS3</tspan></text>
    </g>
    <g>
      <path class="cls-3" d="m72.95,104.34h-6.32c-.64,0-1.17-.52-1.17-1.17s.52-1.17,1.17-1.17h6.32c.64,0,1.17.52,1.17,1.17s-.52,1.17-1.17,1.17Zm-12.54,0h-6.22c-.64,0-1.17-.52-1.17-1.17s.52-1.17,1.17-1.17h6.22c.64,0,1.17.52,1.17,1.17s-.52,1.17-1.17,1.17Zm-12.44,0h-6.22c-.64,0-1.17-.52-1.17-1.17s.52-1.17,1.17-1.17h6.22c.64,0,1.17.52,1.17,1.17s-.52,1.17-1.17,1.17Zm-12.43-.18s-.09,0-.14,0c-2.16-.25-4.28-.77-6.3-1.53-.6-.23-.91-.9-.68-1.51.23-.6.9-.91,1.51-.68,1.85.7,3.78,1.17,5.75,1.4.64.08,1.1.66,1.02,1.3-.07.59-.57,1.03-1.16,1.03Zm43.56-.59c-.52,0-1-.35-1.13-.89-.16-.63.22-1.26.85-1.42,1.92-.48,3.78-1.19,5.53-2.12.57-.3,1.28-.09,1.58.48.3.57.09,1.28-.48,1.58-1.92,1.02-3.95,1.8-6.05,2.33-.1.02-.19.04-.28.04Zm-55.09-3.76c-.23,0-.46-.07-.66-.21-1.78-1.23-3.42-2.67-4.86-4.29-.43-.48-.39-1.22.1-1.65.48-.43,1.22-.38,1.65.1,1.32,1.48,2.81,2.8,4.44,3.92.53.37.67,1.09.3,1.63-.23.33-.59.51-.96.51Zm65.96-2.02c-.32,0-.64-.13-.87-.39-.43-.48-.39-1.22.09-1.65,1.48-1.32,2.79-2.82,3.91-4.45.36-.53,1.09-.67,1.62-.3.53.36.67,1.09.3,1.62-1.22,1.79-2.66,3.43-4.28,4.87-.22.2-.5.3-.78.3Zm-74.14-7.19c-.42,0-.82-.23-1.03-.62-1.01-1.92-1.79-3.96-2.31-6.06-.15-.63.23-1.26.85-1.41.63-.15,1.26.23,1.41.85.47,1.92,1.18,3.78,2.11,5.53.3.57.08,1.28-.49,1.58-.17.09-.36.14-.54.14Zm81.1-2.98c-.14,0-.27-.02-.41-.07-.6-.23-.91-.9-.69-1.5.69-1.85,1.16-3.79,1.38-5.76.07-.64.67-1.1,1.29-1.03.64.07,1.1.65,1.03,1.29-.25,2.16-.76,4.28-1.52,6.31-.18.47-.62.76-1.09.76Zm-84.06-8.99c-.64,0-1.17-.51-1.17-1.16v-6.22c0-.65.52-1.17,1.17-1.17s1.17.52,1.17,1.17v6.19c0,.65-.52,1.18-1.17,1.18Zm85.67-3.26c-.64,0-1.17-.52-1.17-1.17v-6.22c0-.65.52-1.17,1.17-1.17s1.17.52,1.17,1.17v6.22c0,.65-.52,1.17-1.17,1.17Zm-85.67-9.17c-.64,0-1.17-.52-1.17-1.17v-6.22c0-.65.52-1.17,1.17-1.17s1.17.52,1.17,1.17v6.22c0,.65-.52,1.17-1.17,1.17Zm85.67-3.27c-.64,0-1.17-.52-1.17-1.17v-6.22c0-.65.52-1.17,1.17-1.17s1.17.52,1.17,1.17v6.22c0,.65-.52,1.17-1.17,1.17ZM12.88,53.78c-.64,0-1.17-.52-1.17-1.17v-6.22c0-.65.52-1.17,1.17-1.17s1.17.52,1.17,1.17v6.22c0,.65-.52,1.17-1.17,1.17Zm85.67-3.27c-.64,0-1.17-.52-1.17-1.17v-6.15c0-.65.52-1.21,1.17-1.21s1.17.49,1.17,1.13v6.22c0,.65-.52,1.17-1.17,1.17ZM13.06,41.35s-.09,0-.14,0c-.64-.07-1.1-.65-1.03-1.3.25-2.16.77-4.28,1.53-6.31.23-.6.9-.91,1.51-.68.6.23.91.9.68,1.5-.7,1.85-1.16,3.79-1.39,5.75-.07.59-.57,1.03-1.16,1.03Zm84.74-3.22c-.52,0-1-.36-1.13-.89-.48-1.92-1.19-3.78-2.12-5.53-.3-.57-.09-1.28.49-1.58.57-.3,1.28-.09,1.58.49,1.02,1.92,1.8,3.96,2.32,6.06.16.63-.23,1.26-.85,1.42-.1.02-.19.03-.28.03ZM17.39,29.82c-.23,0-.46-.07-.66-.21-.53-.37-.67-1.09-.3-1.62,1.23-1.78,2.67-3.42,4.29-4.86.48-.43,1.22-.39,1.65.1.43.48.39,1.22-.1,1.65-1.48,1.32-2.8,2.81-3.92,4.44-.23.33-.59.51-.96.51Zm74.65-2.57c-.32,0-.64-.13-.87-.39-1.32-1.48-2.81-2.79-4.45-3.91-.53-.37-.67-1.09-.3-1.62.37-.53,1.09-.67,1.62-.3,1.79,1.23,3.42,2.67,4.87,4.28.43.48.39,1.22-.09,1.65-.22.2-.5.3-.78.3Zm-65.45-5.62c-.42,0-.82-.23-1.03-.62-.3-.57-.08-1.28.49-1.58,1.92-1.01,3.96-1.79,6.06-2.31.63-.15,1.26.23,1.42.85.16.63-.23,1.26-.85,1.42-1.92.48-3.78,1.19-5.53,2.11-.17.09-.36.14-.55.14Zm55.29-1.34c-.14,0-.28-.02-.41-.07-1.85-.69-3.79-1.16-5.76-1.39-.64-.07-1.1-.65-1.03-1.29.07-.64.65-1.1,1.3-1.03,2.16.25,4.28.76,6.31,1.52.6.23.91.9.68,1.5-.18.47-.62.76-1.09.76Zm-12.24-1.63h-6.22c-.64,0-1.17-.52-1.17-1.17s.52-1.17,1.17-1.17h6.22c.64,0,1.17.52,1.17,1.17s-.52,1.17-1.17,1.17Zm-12.44,0h-6.22c-.64,0-1.17-.52-1.17-1.17s.52-1.17,1.17-1.17h6.22c.64,0,1.17.52,1.17,1.17s-.52,1.17-1.17,1.17Zm-12.44,0h-6.17c-.64,0-1.19-.52-1.19-1.17s.5-1.17,1.14-1.17h6.22c.64,0,1.17.52,1.17,1.17s-.52,1.17-1.17,1.17Z"/>
      <rect class="cls-4" x="16.78" y="21.39" width="77.89" height="77.89" rx="23.37" ry="23.37"/>
      <g>
        <path class="cls-2" d="m59.99,33.08c1.19.29,2.02,1.09,2.86,1.92,3.76,3.68,7.54,7.35,11.33,11,.96.92,1.43,1.98,1.41,3.3-.03,1.68,0,3.37,0,5.05v.6c.83.05,1.63.05,2.41.15,2.5.34,4.57,2.29,4.92,4.57,0,.05.05.08.08.13v8.84c-.36.8-.6,1.68-1.09,2.38-1.1,1.55-2.71,2.28-4.6,2.4-.55.03-1.1,0-1.72,0,0,.25,0,.46,0,.67,0,2.08-.04,4.15,0,6.23.1,4.13-3.27,7.29-7.26,7.28-8.41-.02-16.81,0-25.22,0-3.57,0-6.45-2.37-7.1-5.82-.09-.47-.1-.95-.1-1.43-.01-2.08,0-4.15,0-6.23,0-.21,0-.42,0-.57-1.04-.11-2.02-.12-2.96-.32-2.7-.6-4.44-2.84-4.45-5.6,0-2.23.06-4.47-.01-6.7-.11-3.34,2.61-5.74,5.74-5.89.53-.03,1.06,0,1.68,0,0-.26,0-.48,0-.7,0-4.59.06-9.19-.02-13.78-.08-4.18,3.01-6.99,6.15-7.37.07,0,.13-.05.2-.08h17.78Zm-4.31,39.72c6.31,0,12.63,0,18.94,0,.89,0,1.77.02,2.66-.01,2.8-.1,4.96-2.25,4.99-5,.03-2.38.02-4.75,0-7.13-.02-2.14-1.08-3.66-3-4.48-.79-.34-1.71-.5-2.57-.51-13.98-.03-27.95-.02-41.93-.02-.2,0-.39,0-.59,0-2.78.11-4.95,2.24-4.99,4.95-.03,2.41-.02,4.82,0,7.24.01,1.91.94,3.3,2.57,4.24.95.55,1.98.73,3.06.72,6.95,0,13.91,0,20.86,0Zm-19.23-17.82h38.51v-6.67c-.25,0-.45,0-.64,0-3.48,0-6.95,0-10.43,0-1.93,0-3.15-1.22-3.15-3.16,0-3.28,0-6.56,0-9.85,0-1.6-.07-1.67-1.73-1.67-5.25,0-10.5.03-15.75-.01-3.92-.03-6.9,3.1-6.83,6.81.09,4.65.02,9.29.02,13.94,0,.19,0,.38,0,.61Zm.03,18.49c-.01.14-.03.26-.03.38,0,2.31-.02,4.61.02,6.92,0,.59.12,1.2.3,1.77.85,2.71,3.38,4.51,6.36,4.51,6.37.01,12.74,0,19.11,0,2.13,0,4.26.03,6.39-.01,3.57-.07,6.38-2.92,6.41-6.49.02-2.2,0-4.4,0-6.6,0-.15-.02-.31-.03-.49h-38.51Zm24.9-32.95c0,1.61-.01,3.23,0,4.84.01,1.27.94,2.29,2.18,2.3,3.26.03,6.52.02,9.78,0,.19,0,.48-.15.54-.3.06-.15-.04-.45-.17-.6-.37-.43-.79-.82-1.19-1.22-3.38-3.39-6.75-6.79-10.14-10.17-.19-.19-.51-.23-.77-.34-.08.25-.24.51-.24.76-.02,1.58-.01,3.15-.01,4.73Z"/>
        <path class="cls-2" d="m57.96,69.21h-1.55v-4.25h-1.8v4.25h-1.53v-9.98h1.52v4.25h1.78v-4.26h1.58v9.99Z"/>
        <path class="cls-2" d="m60.74,69.21h-1.56v-10.08c1.07.06,2.14.04,3.17.19.84.12,1.32.79,1.39,1.61.08.91.11,1.85,0,2.75-.14,1.15-.87,1.7-2.05,1.75-.3.01-.6,0-.96,0v3.76Zm.02-5.18c.31,0,.56.02.8,0,.38-.03.65-.23.66-.63.02-.72.05-1.45-.02-2.17-.02-.21-.33-.48-.57-.57-.25-.1-.57-.02-.87-.02v3.38Z"/>
        <path class="cls-2" d="m47.66,59.27c1.03,0,2.05-.08,3.04.02.86.09,1.41.72,1.5,1.57.09.91.12,1.84.03,2.75-.12,1.18-.84,1.78-2.03,1.83-.3.01-.6,0-.97,0v3.76h-1.56v-9.93Zm1.58,1.36v3.4c.24,0,.45,0,.66,0,.48,0,.78-.24.8-.72.03-.65.03-1.31,0-1.96-.02-.45-.27-.71-.75-.71-.23,0-.45,0-.71,0Z"/>
        <path class="cls-2" d="m55.79,81.19c3.76,0,7.52,0,11.27,0,.16,0,.34-.04.47.02.15.07.35.24.34.36,0,.13-.21.27-.36.36-.09.05-.24.01-.37.01-7.62,0-15.24,0-22.87,0-.16,0-.34.03-.47-.03-.12-.06-.25-.23-.25-.35,0-.12.14-.28.26-.34.13-.06.31-.03.47-.03,3.83,0,7.66,0,11.49,0Z"/>
        <path class="cls-2" d="m55.72,79.37c-3.78,0-7.56,0-11.33,0-.18,0-.38.03-.52-.04-.13-.06-.29-.24-.28-.37,0-.12.18-.28.32-.33.16-.06.35-.03.53-.03,7.54,0,15.08,0,22.61,0,.31,0,.83-.18.84.36,0,.54-.5.39-.82.39-3.78,0-7.56,0-11.33,0Z"/>
      </g>
    </g>
  </g>
  <g>
    <g>
      <text class="cls-1" transform="translate(139.44 351)"><tspan x="0" y="0">Web Development:</tspan></text>
      <text class="cls-6" transform="translate(139.44 418.83)"><tspan x="0" y="0">Responsive design, RESTful APIs</tspan></text>
    </g>
    <g>
      <path class="cls-3" d="m72.95,402.07h-6.32c-.64,0-1.17-.52-1.17-1.17s.52-1.17,1.17-1.17h6.32c.64,0,1.17.52,1.17,1.17s-.52,1.17-1.17,1.17Zm-12.54,0h-6.22c-.64,0-1.17-.52-1.17-1.17s.52-1.17,1.17-1.17h6.22c.64,0,1.17.52,1.17,1.17s-.52,1.17-1.17,1.17Zm-12.44,0h-6.22c-.64,0-1.17-.52-1.17-1.17s.52-1.17,1.17-1.17h6.22c.64,0,1.17.52,1.17,1.17s-.52,1.17-1.17,1.17Zm-12.43-.18s-.09,0-.14,0c-2.16-.25-4.28-.77-6.3-1.53-.6-.23-.91-.9-.68-1.51.23-.6.9-.91,1.51-.68,1.85.7,3.78,1.17,5.75,1.4.64.08,1.1.66,1.02,1.3-.07.59-.57,1.03-1.16,1.03Zm43.56-.59c-.52,0-1-.35-1.13-.89-.16-.63.22-1.26.85-1.42,1.92-.48,3.78-1.19,5.53-2.12.57-.3,1.28-.09,1.58.48.3.57.09,1.28-.48,1.58-1.92,1.02-3.95,1.8-6.05,2.33-.1.02-.19.04-.28.04Zm-55.09-3.76c-.23,0-.46-.07-.66-.21-1.78-1.23-3.42-2.67-4.86-4.29-.43-.48-.39-1.22.1-1.65.48-.43,1.22-.38,1.65.1,1.32,1.48,2.81,2.8,4.44,3.92.53.37.67,1.09.3,1.63-.23.33-.59.51-.96.51Zm65.96-2.02c-.32,0-.64-.13-.87-.39-.43-.48-.39-1.22.09-1.65,1.48-1.32,2.79-2.82,3.91-4.45.36-.53,1.09-.67,1.62-.3.53.36.67,1.09.3,1.62-1.22,1.79-2.66,3.43-4.28,4.87-.22.2-.5.3-.78.3Zm-74.14-7.19c-.42,0-.82-.23-1.03-.62-1.01-1.92-1.79-3.96-2.31-6.06-.15-.63.23-1.26.85-1.41.63-.15,1.26.23,1.41.85.47,1.92,1.18,3.78,2.11,5.53.3.57.08,1.28-.49,1.58-.17.09-.36.14-.54.14Zm81.1-2.98c-.14,0-.27-.02-.41-.07-.6-.23-.91-.9-.69-1.5.69-1.85,1.16-3.79,1.38-5.76.07-.64.67-1.1,1.29-1.03.64.07,1.1.65,1.03,1.29-.25,2.16-.76,4.28-1.52,6.31-.18.47-.62.76-1.09.76Zm-84.06-8.99c-.64,0-1.17-.51-1.17-1.16v-6.22c0-.65.52-1.17,1.17-1.17s1.17.52,1.17,1.17v6.19c0,.65-.52,1.18-1.17,1.18Zm85.67-3.26c-.64,0-1.17-.52-1.17-1.17v-6.22c0-.65.52-1.17,1.17-1.17s1.17.52,1.17,1.17v6.22c0,.65-.52,1.17-1.17,1.17Zm-85.67-9.17c-.64,0-1.17-.52-1.17-1.17v-6.22c0-.65.52-1.17,1.17-1.17s1.17.52,1.17,1.17v6.22c0,.65-.52,1.17-1.17,1.17Zm85.67-3.27c-.64,0-1.17-.52-1.17-1.17v-6.22c0-.65.52-1.17,1.17-1.17s1.17.52,1.17,1.17v6.22c0,.65-.52,1.17-1.17,1.17Zm-85.67-9.17c-.64,0-1.17-.52-1.17-1.17v-6.22c0-.65.52-1.17,1.17-1.17s1.17.52,1.17,1.17v6.22c0,.65-.52,1.17-1.17,1.17Zm85.67-3.27c-.64,0-1.17-.52-1.17-1.17v-6.15c0-.65.52-1.21,1.17-1.21s1.17.49,1.17,1.13v6.22c0,.65-.52,1.17-1.17,1.17Zm-85.5-9.16s-.09,0-.14,0c-.64-.07-1.1-.65-1.03-1.3.25-2.16.77-4.28,1.53-6.31.23-.6.9-.91,1.51-.68.6.23.91.9.68,1.5-.7,1.85-1.16,3.79-1.39,5.75-.07.59-.57,1.03-1.16,1.03Zm84.74-3.22c-.52,0-1-.36-1.13-.89-.48-1.92-1.19-3.78-2.12-5.53-.3-.57-.09-1.28.49-1.58.57-.3,1.28-.09,1.58.49,1.02,1.92,1.8,3.96,2.32,6.06.16.63-.23,1.26-.85,1.42-.1.02-.19.03-.28.03Zm-80.41-8.31c-.23,0-.46-.07-.66-.21-.53-.37-.67-1.09-.3-1.62,1.23-1.78,2.67-3.42,4.29-4.86.48-.43,1.22-.39,1.65.1.43.48.39,1.22-.1,1.65-1.48,1.32-2.8,2.81-3.92,4.44-.23.33-.59.51-.96.51Zm74.65-2.57c-.32,0-.64-.13-.87-.39-1.32-1.48-2.81-2.79-4.45-3.91-.53-.37-.67-1.09-.3-1.62.37-.53,1.09-.67,1.62-.3,1.79,1.23,3.42,2.67,4.87,4.28.43.48.39,1.22-.09,1.65-.22.2-.5.3-.78.3Zm-65.45-5.62c-.42,0-.82-.23-1.03-.62-.3-.57-.08-1.28.49-1.58,1.92-1.01,3.96-1.79,6.06-2.31.63-.15,1.26.23,1.42.85.16.63-.23,1.26-.85,1.42-1.92.48-3.78,1.19-5.53,2.11-.17.09-.36.14-.55.14Zm55.29-1.34c-.14,0-.28-.02-.41-.07-1.85-.69-3.79-1.16-5.76-1.39-.64-.07-1.1-.65-1.03-1.29.07-.64.65-1.1,1.3-1.03,2.16.25,4.28.76,6.31,1.52.6.23.91.9.68,1.5-.18.47-.62.76-1.09.76Zm-12.24-1.63h-6.22c-.64,0-1.17-.52-1.17-1.17s.52-1.17,1.17-1.17h6.22c.64,0,1.17.52,1.17,1.17s-.52,1.17-1.17,1.17Zm-12.44,0h-6.22c-.64,0-1.17-.52-1.17-1.17s.52-1.17,1.17-1.17h6.22c.64,0,1.17.52,1.17,1.17s-.52,1.17-1.17,1.17Zm-12.44,0h-6.17c-.64,0-1.19-.52-1.19-1.17s.5-1.17,1.14-1.17h6.22c.64,0,1.17.52,1.17,1.17s-.52,1.17-1.17,1.17Z"/>
      <rect class="cls-4" x="16.78" y="319.12" width="77.89" height="77.89" rx="23.37" ry="23.37"/>
      <g id="lVVW1y.tif">
        <g>
          <path class="cls-2" d="m58.97,380.47c-1.06-.93-2.13-1.85-3.18-2.79-1.24-1.11-2.46-2.25-3.7-3.39,2.01-2.09,3.99-4.16,5.98-6.21.57-.59,1.49-.57,2.03-.02.56.56.58,1.41,0,2.03-.69.75-1.41,1.48-2.12,2.21-.12.13-.23.26-.4.45.23.02.38.04.53.04,3.51,0,7.02.04,10.53,0,4.95-.06,8.67-2.26,10.89-6.71,3.43-6.84-.95-15.32-8.51-16.59-.09-.01-.18-.06-.26-.05-1.12.09-1.45-.51-1.7-1.55-1.37-5.7-6.12-9.64-11.98-9.73-5.24-.08-9.15,2.35-11.63,6.98-1.04,1.94-1.42,4.04-1.35,6.22.01.5,0,1,0,1.56-.48-.04-.95-.07-1.42-.13-4.78-.58-9.32,2.34-10.79,6.93-1.45,4.52.55,9.51,4.75,11.82,1.6.88,3.34,1.25,5.16,1.25,1,0,2.01,0,3.01,0,.92,0,1.55.59,1.55,1.42,0,.81-.59,1.43-1.49,1.43-2.29,0-4.58.14-6.83-.45-4.75-1.26-8.56-5.55-9.31-10.42-.83-5.39,1.74-10.59,6.35-13.24,1.75-1.01,3.64-1.55,5.66-1.68.14,0,.28-.02.44-.03.16-.88.27-1.77.47-2.63,1.39-6.08,6.59-10.88,12.75-11.76,7.73-1.11,14.83,3.32,17.21,10.75.13.41.35.54.72.64,5.99,1.62,9.62,5.5,11,11.53.1.45.16.91.24,1.36v2.69c-.04.17-.09.34-.12.51-.79,5.14-3.5,8.91-8.13,11.27-2.11,1.08-4.39,1.48-6.74,1.48-3.35,0-6.69,0-10.04,0-.18,0-.36.01-.66.03.8.73,1.44,1.4,2.17,1.97.98.76,1.13,2.19-.34,2.8h-.75Z"/>
          <path class="cls-2" d="m56.27,359.62v4.93h-1.56v-12.06s.04-.05.06-.05c1.99.02,3.97-.02,5.96.08,1.4.07,2.52.7,2.99,2.13.47,1.45.26,2.82-.8,3.95-.8.86-1.91,1-3.02,1.02-1.18.03-2.36,0-3.63,0Zm.02-1.34c1.46-.06,2.89-.04,4.31-.19,1.11-.11,1.7-.93,1.71-2.06.01-1.05-.58-2.01-1.5-2.07-1.49-.1-2.99-.03-4.52-.03v4.34Z"/>
          <path class="cls-2" d="m53.32,364.6c-.57,0-1.04.03-1.49-.02-.16-.02-.36-.2-.43-.36-.39-.96-.77-1.92-1.12-2.9-.11-.32-.27-.44-.61-.43-1.41.02-2.83.02-4.24,0-.32,0-.47.09-.57.4-.33.98-.71,1.95-1.04,2.93-.1.28-.23.4-.54.39-.4-.02-.81,0-1.29,0,.52-1.35,1.01-2.61,1.49-3.88,1.01-2.62,2.02-5.23,3.01-7.86.13-.34.28-.46.65-.45,1.24.02,1.25,0,1.7,1.12,1.42,3.47,2.83,6.95,4.25,10.42.07.18.14.36.25.64Zm-3.73-5c-.7-1.91-1.4-3.8-2.09-5.68-.67,1.89-1.33,3.77-2,5.68h4.09Z"/>
          <path class="cls-2" d="m67.84,364.56h-1.52v-12.09h1.52v12.09Z"/>
        </g>
      </g>
    </g>
  </g>
  <g>
    <g>
      <text class="cls-1" transform="translate(139.44 646)"><tspan x="0" y="0">Databases:</tspan></text>
      <text class="cls-6" transform="translate(139.44 713.83)"><tspan x="0" y="0">MySQL</tspan></text>
    </g>
    <g>
      <path class="cls-3" d="m72.95,697.07h-6.32c-.64,0-1.17-.52-1.17-1.17s.52-1.17,1.17-1.17h6.32c.64,0,1.17.52,1.17,1.17s-.52,1.17-1.17,1.17Zm-12.54,0h-6.22c-.64,0-1.17-.52-1.17-1.17s.52-1.17,1.17-1.17h6.22c.64,0,1.17.52,1.17,1.17s-.52,1.17-1.17,1.17Zm-12.44,0h-6.22c-.64,0-1.17-.52-1.17-1.17s.52-1.17,1.17-1.17h6.22c.64,0,1.17.52,1.17,1.17s-.52,1.17-1.17,1.17Zm-12.43-.18s-.09,0-.14,0c-2.16-.25-4.28-.77-6.3-1.53-.6-.23-.91-.9-.68-1.51.23-.6.9-.91,1.51-.68,1.85.7,3.78,1.17,5.75,1.4.64.08,1.1.66,1.02,1.3-.07.59-.57,1.03-1.16,1.03Zm43.56-.59c-.52,0-1-.35-1.13-.89-.16-.63.22-1.26.85-1.42,1.92-.48,3.78-1.19,5.53-2.12.57-.3,1.28-.09,1.58.48.3.57.09,1.28-.48,1.58-1.92,1.02-3.95,1.8-6.05,2.33-.1.02-.19.04-.28.04Zm-55.09-3.76c-.23,0-.46-.07-.66-.21-1.78-1.23-3.42-2.67-4.86-4.29-.43-.48-.39-1.22.1-1.65.48-.43,1.22-.38,1.65.1,1.32,1.48,2.81,2.8,4.44,3.92.53.37.67,1.09.3,1.63-.23.33-.59.51-.96.51Zm65.96-2.02c-.32,0-.64-.13-.87-.39-.43-.48-.39-1.22.09-1.65,1.48-1.32,2.79-2.82,3.91-4.45.36-.53,1.09-.67,1.62-.3.53.36.67,1.09.3,1.62-1.22,1.79-2.66,3.43-4.28,4.87-.22.2-.5.3-.78.3Zm-74.14-7.19c-.42,0-.82-.23-1.03-.62-1.01-1.92-1.79-3.96-2.31-6.06-.15-.63.23-1.26.85-1.41.63-.15,1.26.23,1.41.85.47,1.92,1.18,3.78,2.11,5.53.3.57.08,1.28-.49,1.58-.17.09-.36.14-.54.14Zm81.1-2.98c-.14,0-.27-.02-.41-.07-.6-.23-.91-.9-.69-1.5.69-1.85,1.16-3.79,1.38-5.76.07-.64.67-1.1,1.29-1.03.64.07,1.1.65,1.03,1.29-.25,2.16-.76,4.28-1.52,6.31-.18.47-.62.76-1.09.76Zm-84.06-8.99c-.64,0-1.17-.51-1.17-1.16v-6.22c0-.65.52-1.17,1.17-1.17s1.17.52,1.17,1.17v6.19c0,.65-.52,1.18-1.17,1.18Zm85.67-3.26c-.64,0-1.17-.52-1.17-1.17v-6.22c0-.65.52-1.17,1.17-1.17s1.17.52,1.17,1.17v6.22c0,.65-.52,1.17-1.17,1.17Zm-85.67-9.17c-.64,0-1.17-.52-1.17-1.17v-6.22c0-.65.52-1.17,1.17-1.17s1.17.52,1.17,1.17v6.22c0,.65-.52,1.17-1.17,1.17Zm85.67-3.27c-.64,0-1.17-.52-1.17-1.17v-6.22c0-.65.52-1.17,1.17-1.17s1.17.52,1.17,1.17v6.22c0,.65-.52,1.17-1.17,1.17Zm-85.67-9.17c-.64,0-1.17-.52-1.17-1.17v-6.22c0-.65.52-1.17,1.17-1.17s1.17.52,1.17,1.17v6.22c0,.65-.52,1.17-1.17,1.17Zm85.67-3.27c-.64,0-1.17-.52-1.17-1.17v-6.15c0-.65.52-1.21,1.17-1.21s1.17.49,1.17,1.13v6.22c0,.65-.52,1.17-1.17,1.17Zm-85.5-9.16s-.09,0-.14,0c-.64-.07-1.1-.65-1.03-1.3.25-2.16.77-4.28,1.53-6.31.23-.6.9-.91,1.51-.68.6.23.91.9.68,1.5-.7,1.85-1.16,3.79-1.39,5.75-.07.59-.57,1.03-1.16,1.03Zm84.74-3.22c-.52,0-1-.36-1.13-.89-.48-1.92-1.19-3.78-2.12-5.53-.3-.57-.09-1.28.49-1.58.57-.3,1.28-.09,1.58.49,1.02,1.92,1.8,3.96,2.32,6.06.16.63-.23,1.26-.85,1.42-.1.02-.19.03-.28.03Zm-80.41-8.31c-.23,0-.46-.07-.66-.21-.53-.37-.67-1.09-.3-1.62,1.23-1.78,2.67-3.42,4.29-4.86.48-.43,1.22-.39,1.65.1.43.48.39,1.22-.1,1.65-1.48,1.32-2.8,2.81-3.92,4.44-.23.33-.59.51-.96.51Zm74.65-2.57c-.32,0-.64-.13-.87-.39-1.32-1.48-2.81-2.79-4.45-3.91-.53-.37-.67-1.09-.3-1.62.37-.53,1.09-.67,1.62-.3,1.79,1.23,3.42,2.67,4.87,4.28.43.48.39,1.22-.09,1.65-.22.2-.5.3-.78.3Zm-65.45-5.62c-.42,0-.82-.23-1.03-.62-.3-.57-.08-1.28.49-1.58,1.92-1.01,3.96-1.79,6.06-2.31.63-.15,1.26.23,1.42.85.16.63-.23,1.26-.85,1.42-1.92.48-3.78,1.19-5.53,2.11-.17.09-.36.14-.55.14Zm55.29-1.34c-.14,0-.28-.02-.41-.07-1.85-.69-3.79-1.16-5.76-1.39-.64-.07-1.1-.65-1.03-1.29.07-.64.65-1.1,1.3-1.03,2.16.25,4.28.76,6.31,1.52.6.23.91.9.68,1.5-.18.47-.62.76-1.09.76Zm-12.24-1.63h-6.22c-.64,0-1.17-.52-1.17-1.17s.52-1.17,1.17-1.17h6.22c.64,0,1.17.52,1.17,1.17s-.52,1.17-1.17,1.17Zm-12.44,0h-6.22c-.64,0-1.17-.52-1.17-1.17s.52-1.17,1.17-1.17h6.22c.64,0,1.17.52,1.17,1.17s-.52,1.17-1.17,1.17Zm-12.44,0h-6.17c-.64,0-1.19-.52-1.19-1.17s.5-1.17,1.14-1.17h6.22c.64,0,1.17.52,1.17,1.17s-.52,1.17-1.17,1.17Z"/>
      <rect class="cls-4" x="16.78" y="614.12" width="77.89" height="77.89" rx="23.37" ry="23.37"/>
      <g>
        <path class="cls-2" d="m42.08,630.96c3.58-1.63,8.41-2.59,13.65-2.59s10.07.96,13.65,2.59c3.43,1.56,6.35,4.05,6.35,7.41s-2.92,5.85-6.35,7.41c-3.58,1.63-8.41,2.59-13.65,2.59s-10.07-.96-13.65-2.59c-3.43-1.56-6.35-4.05-6.35-7.41s2.92-5.85,6.35-7.41"/>
        <path class="cls-2" d="m35.73,645.58v2.8c0,3.36,2.92,5.85,6.35,7.41,3.58,1.62,8.41,2.59,13.65,2.59s10.07-.96,13.65-2.59c3.43-1.56,6.35-4.05,6.35-7.41v-2.8c-1.52,1.44-3.35,2.5-4.97,3.24-4.11,1.87-9.43,2.89-15.03,2.89s-10.93-1.02-15.03-2.89c-1.62-.73-3.44-1.8-4.97-3.24"/>
        <path class="cls-2" d="m35.73,655.58v2.8c0,3.36,2.92,5.85,6.35,7.41,3.58,1.63,8.41,2.59,13.65,2.59s10.07-.96,13.65-2.59c3.43-1.56,6.35-4.05,6.35-7.41v-2.8c-1.52,1.44-3.35,2.5-4.97,3.24-4.11,1.87-9.43,2.89-15.03,2.89s-10.93-1.02-15.03-2.89c-1.62-.73-3.44-1.8-4.97-3.24"/>
        <path class="cls-2" d="m35.73,665.58v2.8c0,3.36,2.92,5.85,6.35,7.41,3.58,1.63,8.41,2.59,13.65,2.59s10.07-.96,13.65-2.59c3.43-1.56,6.35-4.05,6.35-7.41v-2.8c-1.52,1.44-3.35,2.5-4.97,3.24-4.11,1.87-9.43,2.89-15.03,2.89s-10.93-1.02-15.03-2.89c-1.62-.73-3.44-1.8-4.97-3.24"/>
      </g>
    </g>
  </g>
  <g>
    <g>
      <text class="cls-1" transform="translate(139.43 943.41)"><tspan x="0" y="0">Frameworks:</tspan></text>
      <text class="cls-6" transform="translate(139.43 1011.24)"><tspan x="0" y="0">Laravel, Bootstrap, Tailwind</tspan></text>
    </g>
    <g>
      <path class="cls-3" d="m72.95,994.49h-6.32c-.64,0-1.17-.52-1.17-1.17s.52-1.17,1.17-1.17h6.32c.64,0,1.17.52,1.17,1.17s-.52,1.17-1.17,1.17Zm-12.54,0h-6.22c-.64,0-1.17-.52-1.17-1.17s.52-1.17,1.17-1.17h6.22c.64,0,1.17.52,1.17,1.17s-.52,1.17-1.17,1.17Zm-12.44,0h-6.22c-.64,0-1.17-.52-1.17-1.17s.52-1.17,1.17-1.17h6.22c.64,0,1.17.52,1.17,1.17s-.52,1.17-1.17,1.17Zm-12.43-.18s-.09,0-.14,0c-2.16-.25-4.28-.77-6.3-1.53-.6-.23-.91-.9-.68-1.51.23-.6.9-.91,1.51-.68,1.85.7,3.78,1.17,5.75,1.4.64.08,1.1.66,1.02,1.3-.07.59-.57,1.03-1.16,1.03Zm43.56-.59c-.52,0-1-.35-1.13-.89-.16-.63.22-1.26.85-1.42,1.92-.48,3.78-1.19,5.53-2.12.57-.3,1.28-.09,1.58.48.3.57.09,1.28-.48,1.58-1.92,1.02-3.95,1.8-6.05,2.33-.1.02-.19.04-.28.04Zm-55.09-3.76c-.23,0-.46-.07-.66-.21-1.78-1.23-3.42-2.67-4.86-4.29-.43-.48-.39-1.22.1-1.65.48-.43,1.22-.38,1.65.1,1.32,1.48,2.81,2.8,4.44,3.92.53.37.67,1.09.3,1.63-.23.33-.59.51-.96.51Zm65.96-2.02c-.32,0-.64-.13-.87-.39-.43-.48-.39-1.22.09-1.65,1.48-1.32,2.79-2.82,3.91-4.45.36-.53,1.09-.67,1.62-.3.53.36.67,1.09.3,1.62-1.22,1.79-2.66,3.43-4.28,4.87-.22.2-.5.3-.78.3Zm-74.14-7.19c-.42,0-.82-.23-1.03-.62-1.01-1.92-1.79-3.96-2.31-6.06-.15-.63.23-1.26.85-1.41.63-.15,1.26.23,1.41.85.47,1.92,1.18,3.78,2.11,5.53.3.57.08,1.28-.49,1.58-.17.09-.36.14-.54.14Zm81.1-2.98c-.14,0-.27-.02-.41-.07-.6-.23-.91-.9-.69-1.5.69-1.85,1.16-3.79,1.38-5.76.07-.64.67-1.1,1.29-1.03.64.07,1.1.65,1.03,1.29-.25,2.16-.76,4.28-1.52,6.31-.18.47-.62.76-1.09.76Zm-84.06-8.99c-.64,0-1.17-.51-1.17-1.16v-6.22c0-.65.52-1.17,1.17-1.17s1.17.52,1.17,1.17v6.19c0,.65-.52,1.18-1.17,1.18Zm85.67-3.26c-.64,0-1.17-.52-1.17-1.17v-6.22c0-.65.52-1.17,1.17-1.17s1.17.52,1.17,1.17v6.22c0,.65-.52,1.17-1.17,1.17Zm-85.67-9.17c-.64,0-1.17-.52-1.17-1.17v-6.22c0-.65.52-1.17,1.17-1.17s1.17.52,1.17,1.17v6.22c0,.65-.52,1.17-1.17,1.17Zm85.67-3.27c-.64,0-1.17-.52-1.17-1.17v-6.22c0-.65.52-1.17,1.17-1.17s1.17.52,1.17,1.17v6.22c0,.65-.52,1.17-1.17,1.17Zm-85.67-9.17c-.64,0-1.17-.52-1.17-1.17v-6.22c0-.65.52-1.17,1.17-1.17s1.17.52,1.17,1.17v6.22c0,.65-.52,1.17-1.17,1.17Zm85.67-3.27c-.64,0-1.17-.52-1.17-1.17v-6.15c0-.65.52-1.21,1.17-1.21s1.17.49,1.17,1.13v6.22c0,.65-.52,1.17-1.17,1.17Zm-85.5-9.16s-.09,0-.14,0c-.64-.07-1.1-.65-1.03-1.3.25-2.16.77-4.28,1.53-6.31.23-.6.9-.91,1.51-.68.6.23.91.9.68,1.5-.7,1.85-1.16,3.79-1.39,5.75-.07.59-.57,1.03-1.16,1.03Zm84.74-3.22c-.52,0-1-.36-1.13-.89-.48-1.92-1.19-3.78-2.12-5.53-.3-.57-.09-1.28.49-1.58.57-.3,1.28-.09,1.58.49,1.02,1.92,1.8,3.96,2.32,6.06.16.63-.23,1.26-.85,1.42-.1.02-.19.03-.28.03Zm-80.41-8.31c-.23,0-.46-.07-.66-.21-.53-.37-.67-1.09-.3-1.62,1.23-1.78,2.67-3.42,4.29-4.86.48-.43,1.22-.39,1.65.1.43.48.39,1.22-.1,1.65-1.48,1.32-2.8,2.81-3.92,4.44-.23.33-.59.51-.96.51Zm74.65-2.57c-.32,0-.64-.13-.87-.39-1.32-1.48-2.81-2.79-4.45-3.91-.53-.37-.67-1.09-.3-1.62.37-.53,1.09-.67,1.62-.3,1.79,1.23,3.42,2.67,4.87,4.28.43.48.39,1.22-.09,1.65-.22.2-.5.3-.78.3Zm-65.45-5.62c-.42,0-.82-.23-1.03-.62-.3-.57-.08-1.28.49-1.58,1.92-1.01,3.96-1.79,6.06-2.31.63-.15,1.26.23,1.42.85.16.63-.23,1.26-.85,1.42-1.92.48-3.78,1.19-5.53,2.11-.17.09-.36.14-.55.14Zm55.29-1.34c-.14,0-.28-.02-.41-.07-1.85-.69-3.79-1.16-5.76-1.39-.64-.07-1.1-.65-1.03-1.29.07-.64.65-1.1,1.3-1.03,2.16.25,4.28.76,6.31,1.52.6.23.91.9.68,1.5-.18.47-.62.76-1.09.76Zm-12.24-1.63h-6.22c-.64,0-1.17-.52-1.17-1.17s.52-1.17,1.17-1.17h6.22c.64,0,1.17.52,1.17,1.17s-.52,1.17-1.17,1.17Zm-12.44,0h-6.22c-.64,0-1.17-.52-1.17-1.17s.52-1.17,1.17-1.17h6.22c.64,0,1.17.52,1.17,1.17s-.52,1.17-1.17,1.17Zm-12.44,0h-6.17c-.64,0-1.19-.52-1.19-1.17s.5-1.17,1.14-1.17h6.22c.64,0,1.17.52,1.17,1.17s-.52,1.17-1.17,1.17Z"/>
      <rect class="cls-4" x="16.78" y="911.54" width="77.89" height="77.89" rx="23.37" ry="23.37"/>
      <path class="cls-2" d="m52.94,953.62c.92-.52,1.72-.97,2.51-1.43,1.92-1.1,3.83-2.22,5.75-3.31.4-.22.54-.49.54-.94-.02-3.47,0-6.95-.02-10.42,0-.6.22-.95.73-1.24,3.28-1.87,6.55-3.76,9.82-5.66.44-.25.82-.26,1.26,0,3.3,1.92,6.6,3.82,9.91,5.71.44.25.63.57.63,1.08-.01,3.78-.02,7.56,0,11.34,0,.54-.2.87-.65,1.13-3.08,1.76-6.14,3.54-9.22,5.3-.38.22-.52.45-.52.89.02,3.49,0,6.98.02,10.48,0,.58-.21.93-.71,1.21-5.58,3.21-11.16,6.43-16.74,9.64-1.15.66-2.32,1.31-3.46,1.99-.46.27-.85.27-1.3,0-4.34-2.51-8.69-5.02-13.04-7.52-2.38-1.37-4.76-2.76-7.16-4.11-.51-.29-.75-.65-.75-1.25,0-11.63,0-23.26,0-34.88,0-.53.19-.89.64-1.15,3.26-1.87,6.52-3.74,9.77-5.63.57-.33,1.02-.34,1.59,0,3.25,1.9,6.51,3.76,9.77,5.63.45.26.63.61.63,1.14-.01,7.07,0,14.15,0,21.22v.79Zm-20.75-20.92c0,.36,0,.58,0,.79,0,2.92,0,5.83,0,8.75,0,7.85,0,15.7-.01,23.54,0,.48.14.74.56.97,1.34.74,2.65,1.52,3.98,2.29,4.72,2.72,9.45,5.44,14.17,8.16.11.07.25.1.42.16.02-.2.06-.34.06-.48,0-3.02,0-6.05,0-9.07,0-.37-.17-.54-.46-.71-3.04-1.71-6.06-3.45-9.11-5.15-.66-.37-.88-.83-.88-1.56.02-7.33,0-14.65.02-21.98,0-.48-.1-.77-.56-1.03-2.1-1.17-4.18-2.4-6.27-3.6-.59-.34-1.18-.67-1.91-1.09Zm39.88,23.74c-.35.18-.58.3-.81.43-5.95,3.4-11.89,6.8-17.84,10.19-.36.21-.49.43-.49.85.02,2.95,0,5.9.01,8.85,0,.19.02.37.04.63.22-.11.37-.17.5-.25.78-.45,1.56-.89,2.34-1.34,5.25-3.03,10.5-6.06,15.75-9.07.39-.23.55-.48.54-.93-.02-2.88,0-5.76-.01-8.64,0-.19-.02-.39-.03-.72Zm-.86-1.39c-.14-.13-.19-.19-.24-.23-2.71-1.56-5.42-3.13-8.14-4.67-.17-.1-.49-.06-.68.04-1.29.71-2.56,1.46-3.84,2.2-4.6,2.65-9.2,5.29-13.8,7.94-.34.19-.67.4-1.08.65.25.16.42.29.6.39,2.58,1.47,5.17,2.92,7.74,4.4.3.17.52.11.79-.05,5.35-3.07,10.71-6.12,16.07-9.18.84-.48,1.67-.97,2.57-1.49Zm-28.64,4.47c.21-.07.32-.09.41-.15,2.68-1.54,5.36-3.08,8.03-4.65.19-.11.34-.46.34-.7.02-6.89.02-13.78.01-20.68,0-.18-.04-.37-.07-.59-.18.08-.28.11-.37.16-2.62,1.51-5.23,3.03-7.86,4.52-.39.22-.5.47-.5.9.01,6.86,0,13.71,0,20.57v.62Zm-9.51-28.26c.15.13.21.2.28.24,2.71,1.56,5.41,3.13,8.13,4.68.16.09.46.07.63-.03,2.66-1.51,5.3-3.04,7.94-4.57.13-.07.24-.17.39-.29-.13-.1-.2-.17-.27-.21-2.69-1.55-5.38-3.11-8.09-4.64-.17-.1-.49-.07-.67.03-1.8,1.01-3.59,2.04-5.38,3.08-.96.55-1.92,1.11-2.96,1.72Zm31.11,5.91c.15.1.19.13.24.16,2.74,1.58,5.48,3.16,8.23,4.72.16.09.46.06.63-.04,2.67-1.52,5.33-3.05,7.99-4.59.1-.06.18-.15.3-.25-.13-.11-.22-.2-.32-.26-2.68-1.55-5.35-3.09-8.04-4.62-.16-.09-.47-.07-.63.03-2.3,1.3-4.58,2.63-6.87,3.95-.48.28-.95.56-1.53.9Zm18.34,1.46c-.25.1-.39.14-.5.21-2.63,1.51-5.26,3.04-7.9,4.54-.31.18-.41.4-.41.74.01,2.93,0,5.86,0,8.8,0,.19.03.37.05.62.21-.08.34-.12.46-.19,2.63-1.51,5.26-3.03,7.9-4.54.31-.18.4-.4.4-.74-.01-2.93,0-5.86,0-8.8,0-.18,0-.35,0-.64Zm-19.11-.03c-.03.24-.06.36-.06.48,0,3.02-.01,6.05.02,9.07,0,.22.21.53.42.65,2.59,1.52,5.2,3.01,7.8,4.51.14.08.3.13.55.23v-.75c0-2.84-.01-5.69.01-8.53,0-.48-.14-.75-.56-.98-2.02-1.14-4.03-2.31-6.04-3.46-.68-.39-1.37-.78-2.14-1.22Z"/>
    </g>
  </g>
  <g>
    <g>
      <text class="cls-1" transform="translate(139.43 1240.03)"><tspan x="0" y="0">Version Control:</tspan></text>
      <text class="cls-6" transform="translate(139.43 1307.86)"><tspan x="0" y="0">Git</tspan></text>
    </g>
    <g>
      <path class="cls-3" d="m72.95,1291.11h-6.32c-.64,0-1.17-.52-1.17-1.17s.52-1.17,1.17-1.17h6.32c.64,0,1.17.52,1.17,1.17s-.52,1.17-1.17,1.17Zm-12.54,0h-6.22c-.64,0-1.17-.52-1.17-1.17s.52-1.17,1.17-1.17h6.22c.64,0,1.17.52,1.17,1.17s-.52,1.17-1.17,1.17Zm-12.44,0h-6.22c-.64,0-1.17-.52-1.17-1.17s.52-1.17,1.17-1.17h6.22c.64,0,1.17.52,1.17,1.17s-.52,1.17-1.17,1.17Zm-12.43-.18s-.09,0-.14,0c-2.16-.25-4.28-.77-6.3-1.53-.6-.23-.91-.9-.68-1.51.23-.6.9-.91,1.51-.68,1.85.7,3.78,1.17,5.75,1.4.64.08,1.1.66,1.02,1.3-.07.59-.57,1.03-1.16,1.03Zm43.56-.59c-.52,0-1-.35-1.13-.89-.16-.63.22-1.26.85-1.42,1.92-.48,3.78-1.19,5.53-2.12.57-.3,1.28-.09,1.58.48.3.57.09,1.28-.48,1.58-1.92,1.02-3.95,1.8-6.05,2.33-.1.02-.19.04-.28.04Zm-55.09-3.76c-.23,0-.46-.07-.66-.21-1.78-1.23-3.42-2.67-4.86-4.29-.43-.48-.39-1.22.1-1.65.48-.43,1.22-.38,1.65.1,1.32,1.48,2.81,2.8,4.44,3.92.53.37.67,1.09.3,1.63-.23.33-.59.51-.96.51Zm65.96-2.02c-.32,0-.64-.13-.87-.39-.43-.48-.39-1.22.09-1.65,1.48-1.32,2.79-2.82,3.91-4.45.36-.53,1.09-.67,1.62-.3.53.36.67,1.09.3,1.62-1.22,1.79-2.66,3.43-4.28,4.87-.22.2-.5.3-.78.3Zm-74.14-7.19c-.42,0-.82-.23-1.03-.62-1.01-1.92-1.79-3.96-2.31-6.06-.15-.63.23-1.26.85-1.41.63-.15,1.26.23,1.41.85.47,1.92,1.18,3.78,2.11,5.53.3.57.08,1.28-.49,1.58-.17.09-.36.14-.54.14Zm81.1-2.98c-.14,0-.27-.02-.41-.07-.6-.23-.91-.9-.69-1.5.69-1.85,1.16-3.79,1.38-5.76.07-.64.67-1.1,1.29-1.03.64.07,1.1.65,1.03,1.29-.25,2.16-.76,4.28-1.52,6.31-.18.47-.62.76-1.09.76Zm-84.06-8.99c-.64,0-1.17-.51-1.17-1.16v-6.22c0-.65.52-1.17,1.17-1.17s1.17.52,1.17,1.17v6.19c0,.65-.52,1.18-1.17,1.18Zm85.67-3.26c-.64,0-1.17-.52-1.17-1.17v-6.22c0-.65.52-1.17,1.17-1.17s1.17.52,1.17,1.17v6.22c0,.65-.52,1.17-1.17,1.17Zm-85.67-9.17c-.64,0-1.17-.52-1.17-1.17v-6.22c0-.65.52-1.17,1.17-1.17s1.17.52,1.17,1.17v6.22c0,.65-.52,1.17-1.17,1.17Zm85.67-3.27c-.64,0-1.17-.52-1.17-1.17v-6.22c0-.65.52-1.17,1.17-1.17s1.17.52,1.17,1.17v6.22c0,.65-.52,1.17-1.17,1.17Zm-85.67-9.17c-.64,0-1.17-.52-1.17-1.17v-6.22c0-.65.52-1.17,1.17-1.17s1.17.52,1.17,1.17v6.22c0,.65-.52,1.17-1.17,1.17Zm85.67-3.27c-.64,0-1.17-.52-1.17-1.17v-6.15c0-.65.52-1.21,1.17-1.21s1.17.49,1.17,1.13v6.22c0,.65-.52,1.17-1.17,1.17Zm-85.5-9.16s-.09,0-.14,0c-.64-.07-1.1-.65-1.03-1.3.25-2.16.77-4.28,1.53-6.31.23-.6.9-.91,1.51-.68.6.23.91.9.68,1.5-.7,1.85-1.16,3.79-1.39,5.75-.07.59-.57,1.03-1.16,1.03Zm84.74-3.22c-.52,0-1-.36-1.13-.89-.48-1.92-1.19-3.78-2.12-5.53-.3-.57-.09-1.28.49-1.58.57-.3,1.28-.09,1.58.49,1.02,1.92,1.8,3.96,2.32,6.06.16.63-.23,1.26-.85,1.42-.1.02-.19.03-.28.03Zm-80.41-8.31c-.23,0-.46-.07-.66-.21-.53-.37-.67-1.09-.3-1.62,1.23-1.78,2.67-3.42,4.29-4.86.48-.43,1.22-.39,1.65.1.43.48.39,1.22-.1,1.65-1.48,1.32-2.8,2.81-3.92,4.44-.23.33-.59.51-.96.51Zm74.65-2.57c-.32,0-.64-.13-.87-.39-1.32-1.48-2.81-2.79-4.45-3.91-.53-.37-.67-1.09-.3-1.62.37-.53,1.09-.67,1.62-.3,1.79,1.23,3.42,2.67,4.87,4.28.43.48.39,1.22-.09,1.65-.22.2-.5.3-.78.3Zm-65.45-5.62c-.42,0-.82-.23-1.03-.62-.3-.57-.08-1.28.49-1.58,1.92-1.01,3.96-1.79,6.06-2.31.63-.15,1.26.23,1.42.85.16.63-.23,1.26-.85,1.42-1.92.48-3.78,1.19-5.53,2.11-.17.09-.36.14-.55.14Zm55.29-1.34c-.14,0-.28-.02-.41-.07-1.85-.69-3.79-1.16-5.76-1.39-.64-.07-1.1-.65-1.03-1.29.07-.64.65-1.1,1.3-1.03,2.16.25,4.28.76,6.31,1.52.6.23.91.9.68,1.5-.18.47-.62.76-1.09.76Zm-12.24-1.63h-6.22c-.64,0-1.17-.52-1.17-1.17s.52-1.17,1.17-1.17h6.22c.64,0,1.17.52,1.17,1.17s-.52,1.17-1.17,1.17Zm-12.44,0h-6.22c-.64,0-1.17-.52-1.17-1.17s.52-1.17,1.17-1.17h6.22c.64,0,1.17.52,1.17,1.17s-.52,1.17-1.17,1.17Zm-12.44,0h-6.17c-.64,0-1.19-.52-1.19-1.17s.5-1.17,1.14-1.17h6.22c.64,0,1.17.52,1.17,1.17s-.52,1.17-1.17,1.17Z"/>
      <rect class="cls-4" x="16.78" y="1208.16" width="77.89" height="77.89" rx="23.37" ry="23.37"/>
      <path class="cls-2" d="m55.52,1220.4c-15.29,0-27.68,12.39-27.68,27.68,0,12.25,7.92,22.6,18.93,26.26,1.38.24,1.9-.59,1.9-1.31,0-.66-.03-2.84-.03-5.16-6.96,1.28-8.75-1.7-9.31-3.25-.31-.8-1.66-3.25-2.84-3.91-.97-.52-2.35-1.8-.03-1.83,2.18-.03,3.74,2.01,4.26,2.84,2.49,4.19,6.47,3.01,8.06,2.28.24-1.8.97-3.01,1.76-3.7-6.16-.69-12.6-3.08-12.6-13.67,0-3.01,1.07-5.5,2.84-7.44-.28-.69-1.25-3.53.28-7.34,0,0,2.32-.73,7.61,2.84,2.21-.62,4.57-.93,6.92-.93s4.71.31,6.92.93c5.29-3.6,7.61-2.84,7.61-2.84,1.52,3.81.55,6.64.28,7.34,1.76,1.94,2.84,4.39,2.84,7.44,0,10.62-6.47,12.98-12.63,13.67,1,.87,1.87,2.53,1.87,5.12,0,3.7-.03,6.68-.03,7.61,0,.73.52,1.59,1.9,1.31,11.27-3.8,18.86-14.37,18.86-26.26,0-15.29-12.39-27.68-27.68-27.68"/>
    </g>
  </g>
  <g>
    <g>
      <text class="cls-1" transform="translate(139.43 1536.16)"><tspan x="0" y="0">Communication:</tspan></text>
      <text class="cls-6" transform="translate(139.43 1603.99)"><tspan x="0" y="0">Team collaboration, client interaction</tspan></text>
    </g>
    <g>
      <path class="cls-3" d="m72.95,1587.24h-6.32c-.64,0-1.17-.52-1.17-1.17s.52-1.17,1.17-1.17h6.32c.64,0,1.17.52,1.17,1.17s-.52,1.17-1.17,1.17Zm-12.54,0h-6.22c-.64,0-1.17-.52-1.17-1.17s.52-1.17,1.17-1.17h6.22c.64,0,1.17.52,1.17,1.17s-.52,1.17-1.17,1.17Zm-12.44,0h-6.22c-.64,0-1.17-.52-1.17-1.17s.52-1.17,1.17-1.17h6.22c.64,0,1.17.52,1.17,1.17s-.52,1.17-1.17,1.17Zm-12.43-.18s-.09,0-.14,0c-2.16-.25-4.28-.77-6.3-1.53-.6-.23-.91-.9-.68-1.51.23-.6.9-.91,1.51-.68,1.85.7,3.78,1.17,5.75,1.4.64.08,1.1.66,1.02,1.3-.07.59-.57,1.03-1.16,1.03Zm43.56-.59c-.52,0-1-.35-1.13-.89-.16-.63.22-1.26.85-1.42,1.92-.48,3.78-1.19,5.53-2.12.57-.3,1.28-.09,1.58.48.3.57.09,1.28-.48,1.58-1.92,1.02-3.95,1.8-6.05,2.33-.1.02-.19.04-.28.04Zm-55.09-3.76c-.23,0-.46-.07-.66-.21-1.78-1.23-3.42-2.67-4.86-4.29-.43-.48-.39-1.22.1-1.65.48-.43,1.22-.38,1.65.1,1.32,1.48,2.81,2.8,4.44,3.92.53.37.67,1.09.3,1.63-.23.33-.59.51-.96.51Zm65.96-2.02c-.32,0-.64-.13-.87-.39-.43-.48-.39-1.22.09-1.65,1.48-1.32,2.79-2.82,3.91-4.45.36-.53,1.09-.67,1.62-.3.53.36.67,1.09.3,1.62-1.22,1.79-2.66,3.43-4.28,4.87-.22.2-.5.3-.78.3Zm-74.14-7.19c-.42,0-.82-.23-1.03-.62-1.01-1.92-1.79-3.96-2.31-6.06-.15-.63.23-1.26.85-1.41.63-.15,1.26.23,1.41.85.47,1.92,1.18,3.78,2.11,5.53.3.57.08,1.28-.49,1.58-.17.09-.36.14-.54.14Zm81.1-2.98c-.14,0-.27-.02-.41-.07-.6-.23-.91-.9-.69-1.5.69-1.85,1.16-3.79,1.38-5.76.07-.64.67-1.1,1.29-1.03.64.07,1.1.65,1.03,1.29-.25,2.16-.76,4.28-1.52,6.31-.18.47-.62.76-1.09.76Zm-84.06-8.99c-.64,0-1.17-.51-1.17-1.16v-6.22c0-.65.52-1.17,1.17-1.17s1.17.52,1.17,1.17v6.19c0,.65-.52,1.18-1.17,1.18Zm85.67-3.26c-.64,0-1.17-.52-1.17-1.17v-6.22c0-.65.52-1.17,1.17-1.17s1.17.52,1.17,1.17v6.22c0,.65-.52,1.17-1.17,1.17Zm-85.67-9.17c-.64,0-1.17-.52-1.17-1.17v-6.22c0-.65.52-1.17,1.17-1.17s1.17.52,1.17,1.17v6.22c0,.65-.52,1.17-1.17,1.17Zm85.67-3.27c-.64,0-1.17-.52-1.17-1.17v-6.22c0-.65.52-1.17,1.17-1.17s1.17.52,1.17,1.17v6.22c0,.65-.52,1.17-1.17,1.17Zm-85.67-9.17c-.64,0-1.17-.52-1.17-1.17v-6.22c0-.65.52-1.17,1.17-1.17s1.17.52,1.17,1.17v6.22c0,.65-.52,1.17-1.17,1.17Zm85.67-3.27c-.64,0-1.17-.52-1.17-1.17v-6.15c0-.65.52-1.21,1.17-1.21s1.17.49,1.17,1.13v6.22c0,.65-.52,1.17-1.17,1.17Zm-85.5-9.16s-.09,0-.14,0c-.64-.07-1.1-.65-1.03-1.3.25-2.16.77-4.28,1.53-6.31.23-.6.9-.91,1.51-.68.6.23.91.9.68,1.5-.7,1.85-1.16,3.79-1.39,5.75-.07.59-.57,1.03-1.16,1.03Zm84.74-3.22c-.52,0-1-.36-1.13-.89-.48-1.92-1.19-3.78-2.12-5.53-.3-.57-.09-1.28.49-1.58.57-.3,1.28-.09,1.58.49,1.02,1.92,1.8,3.96,2.32,6.06.16.63-.23,1.26-.85,1.42-.1.02-.19.03-.28.03Zm-80.41-8.31c-.23,0-.46-.07-.66-.21-.53-.37-.67-1.09-.3-1.62,1.23-1.78,2.67-3.42,4.29-4.86.48-.43,1.22-.39,1.65.1.43.48.39,1.22-.1,1.65-1.48,1.32-2.8,2.81-3.92,4.44-.23.33-.59.51-.96.51Zm74.65-2.57c-.32,0-.64-.13-.87-.39-1.32-1.48-2.81-2.79-4.45-3.91-.53-.37-.67-1.09-.3-1.62.37-.53,1.09-.67,1.62-.3,1.79,1.23,3.42,2.67,4.87,4.28.43.48.39,1.22-.09,1.65-.22.2-.5.3-.78.3Zm-65.45-5.62c-.42,0-.82-.23-1.03-.62-.3-.57-.08-1.28.49-1.58,1.92-1.01,3.96-1.79,6.06-2.31.63-.15,1.26.23,1.42.85.16.63-.23,1.26-.85,1.42-1.92.48-3.78,1.19-5.53,2.11-.17.09-.36.14-.55.14Zm55.29-1.34c-.14,0-.28-.02-.41-.07-1.85-.69-3.79-1.16-5.76-1.39-.64-.07-1.1-.65-1.03-1.29.07-.64.65-1.1,1.3-1.03,2.16.25,4.28.76,6.31,1.52.6.23.91.9.68,1.5-.18.47-.62.76-1.09.76Zm-12.24-1.63h-6.22c-.64,0-1.17-.52-1.17-1.17s.52-1.17,1.17-1.17h6.22c.64,0,1.17.52,1.17,1.17s-.52,1.17-1.17,1.17Zm-12.44,0h-6.22c-.64,0-1.17-.52-1.17-1.17s.52-1.17,1.17-1.17h6.22c.64,0,1.17.52,1.17,1.17s-.52,1.17-1.17,1.17Zm-12.44,0h-6.17c-.64,0-1.19-.52-1.19-1.17s.5-1.17,1.14-1.17h6.22c.64,0,1.17.52,1.17,1.17s-.52,1.17-1.17,1.17Z"/>
      <rect class="cls-4" x="16.78" y="1504.29" width="77.89" height="77.89" rx="23.37" ry="23.37"/>
      <g>
        <path class="cls-2" d="m60.3,1534.72c4.77-.88,7.92-5.46,7.03-10.23-.88-4.77-5.46-7.92-10.23-7.03-4.07.75-7.06,4.25-7.18,8.38h4.27c3.37,0,6.1,2.73,6.1,6.1v2.78Zm-15.58,28.07h9.48c3.37,0,6.1-2.73,6.1-6.1v-19.13h10.1c1.4.04,2.51,1.2,2.47,2.6v15.58c.19,8.4-6.45,15.37-14.85,15.57-5.87-.15-10.88-3.59-13.3-8.52h0Zm38.95-34c0,3.35-2.72,6.07-6.07,6.07s-6.07-2.72-6.07-6.07,2.72-6.07,6.07-6.07,6.07,2.72,6.07,6.07m-8.12,34.42h-.44c.97-2.39,1.44-4.95,1.38-7.52v-15.5c.01-.91-.17-1.8-.54-2.63h6.5c1.41,0,2.56,1.15,2.56,2.56v13.66c0,5.2-4.22,9.42-9.42,9.42h-.04Z"/>
        <path class="cls-2" d="m29.45,1529.47h24.75c1.37,0,2.47,1.11,2.47,2.47v24.75c0,1.36-1.1,2.47-2.46,2.47,0,0,0,0-.01,0h-24.75c-1.36,0-2.47-1.1-2.47-2.46,0,0,0,0,0-.01v-24.75c0-1.37,1.11-2.47,2.47-2.47h0Zm18.89,9.42v-2.61h-13.02v2.61h4.92v13.48h3.16v-13.48h4.94Z"/>
      </g>
    </g>
  </g>
  <line class="cls-5" x1="55.52" y1="111.04" x2="55.52" y2="311.04"/>
  <line class="cls-5" x1="55.52" y1="407.74" x2="55.52" y2="607.74"/>
  <line class="cls-5" x1="55.52" y1="704.44" x2="55.52" y2="904.44"/>
  <line class="cls-5" x1="55.52" y1="1001.13" x2="55.52" y2="1201.13"/>
  <line class="cls-5" x1="55.52" y1="1297.83" x2="55.52" y2="1497.83"/>
</svg>