<?xml version="1.0" encoding="UTF-8"?>
<svg id="Layer_1" data-name="Layer 1" xmlns="http://www.w3.org/2000/svg" viewBox="0 0 1920 1080">
  <defs>
    <style>
      .cls-1 {
        fill: #666;
        font-family: Teko-Regular, Teko;
        font-size: 52.48px;
      }

      .cls-2 {
        fill: #fff;
      }

      .cls-3 {
        fill: #999;
      }

      .cls-4 {
        fill: #75f;
      }

      .cls-5 {
        fill: #222;
        font-family: Teko-Medium, Teko;
        font-size: 61.23px;
        font-weight: 500;
      }

      .cls-6 {
        fill: none;
        stroke: #999;
        stroke-dasharray: 0 0 3.5 6.98;
        stroke-linecap: round;
        stroke-linejoin: round;
        stroke-width: 1.75px;
      }
    </style>
  </defs>
  <rect class="cls-2" width="1920" height="1080"/>
  <g>
    <g>
      <g>
        <text class="cls-1" transform="translate(271.86 323.26)"><tspan x="0" y="0">Programming Languages:</tspan></text>
        <text class="cls-5" transform="translate(271.86 389.38)"><tspan x="0" y="0">PHP, JavaScript, HTML5, CSS3</tspan></text>
      </g>
      <g>
        <path class="cls-3" d="m222.6,352.29h-4.4c-.45,0-.81-.36-.81-.81s.36-.81.81-.81h4.4c.45,0,.81.36.81.81s-.36.81-.81.81Zm-8.72,0h-4.33c-.45,0-.81-.36-.81-.81s.36-.81.81-.81h4.33c.45,0,.81.36.81.81s-.36.81-.81.81Zm-8.65,0h-4.33c-.45,0-.81-.36-.81-.81s.36-.81.81-.81h4.33c.45,0,.81.36.81.81s-.36.81-.81.81Zm-8.65-.12s-.06,0-.1,0c-1.5-.18-2.98-.54-4.39-1.07-.42-.16-.63-.63-.47-1.05.16-.42.63-.63,1.05-.47,1.29.48,2.63.81,4,.97.45.05.76.46.71.9-.05.41-.4.72-.81.72Zm30.3-.41c-.36,0-.7-.25-.79-.62-.11-.44.16-.88.59-.99,1.33-.33,2.63-.83,3.84-1.48.4-.21.89-.06,1.1.34.21.4.06.89-.34,1.1-1.33.71-2.75,1.25-4.21,1.62-.07.02-.13.02-.2.02Zm-38.32-2.61c-.16,0-.32-.05-.46-.14-1.24-.85-2.38-1.86-3.38-2.99-.3-.34-.27-.85.07-1.15.34-.3.85-.27,1.15.07.92,1.03,1.96,1.95,3.09,2.73.37.25.46.76.21,1.13-.16.23-.41.35-.67.35Zm45.89-1.4c-.22,0-.45-.09-.61-.27-.3-.33-.27-.85.06-1.15,1.03-.92,1.94-1.96,2.72-3.1.25-.37.76-.46,1.13-.21.37.25.47.76.21,1.13-.85,1.24-1.85,2.38-2.98,3.39-.16.14-.35.21-.54.21Zm-51.58-5c-.29,0-.57-.16-.72-.43-.71-1.34-1.25-2.75-1.61-4.22-.11-.44.16-.88.59-.98.44-.11.88.16.98.59.33,1.33.82,2.63,1.47,3.85.21.4.06.89-.34,1.1-.12.06-.25.09-.38.09Zm56.42-2.07c-.09,0-.19-.02-.28-.05-.42-.16-.63-.63-.48-1.05.48-1.29.81-2.64.96-4.01.05-.45.46-.76.9-.71.45.05.77.45.71.9-.17,1.5-.53,2.98-1.05,4.39-.12.33-.43.53-.76.53Zm-58.47-6.25c-.45,0-.81-.36-.81-.8v-4.33c0-.45.36-.81.81-.81s.81.36.81.81v4.31c0,.45-.36.82-.81.82Zm59.6-2.27c-.45,0-.81-.36-.81-.81v-4.33c0-.45.36-.81.81-.81s.81.36.81.81v4.33c0,.45-.36.81-.81.81Zm-59.6-6.38c-.45,0-.81-.36-.81-.81v-4.33c0-.45.36-.81.81-.81s.81.36.81.81v4.33c0,.45-.36.81-.81.81Zm59.6-2.28c-.45,0-.81-.36-.81-.81v-4.33c0-.45.36-.81.81-.81s.81.36.81.81v4.33c0,.45-.36.81-.81.81Zm-59.6-6.38c-.45,0-.81-.36-.81-.81v-4.33c0-.45.36-.81.81-.81s.81.36.81.81v4.33c0,.45-.36.81-.81.81Zm59.6-2.28c-.45,0-.81-.36-.81-.81v-4.28c0-.45.36-.84.81-.84s.81.34.81.79v4.33c0,.45-.36.81-.81.81Zm-59.48-6.37s-.06,0-.1,0c-.45-.05-.77-.46-.71-.9.18-1.5.53-2.98,1.06-4.39.16-.42.63-.63,1.05-.47.42.16.63.63.47,1.05-.48,1.29-.81,2.63-.97,4-.05.41-.4.72-.81.72Zm58.95-2.24c-.36,0-.7-.25-.79-.62-.33-1.33-.83-2.63-1.47-3.84-.21-.4-.06-.89.34-1.1.4-.21.89-.06,1.1.34.71,1.33,1.25,2.75,1.61,4.21.11.44-.16.88-.59.98-.07.02-.13.02-.2.02Zm-55.93-5.78c-.16,0-.32-.05-.46-.14-.37-.25-.46-.76-.21-1.13.85-1.24,1.86-2.38,2.98-3.38.34-.3.85-.27,1.15.07.3.33.27.85-.07,1.15-1.03.92-1.95,1.96-2.72,3.09-.16.23-.41.35-.67.35Zm51.93-1.79c-.22,0-.45-.09-.61-.27-.92-1.03-1.96-1.94-3.09-2.72-.37-.25-.46-.76-.21-1.13.25-.37.76-.46,1.13-.21,1.24.85,2.38,1.86,3.39,2.98.3.33.27.85-.07,1.15-.16.14-.35.21-.54.21Zm-45.53-3.91c-.29,0-.57-.16-.72-.43-.21-.4-.06-.89.34-1.1,1.33-.71,2.75-1.25,4.21-1.61.44-.11.88.16.98.59.11.44-.16.88-.59.98-1.34.33-2.63.83-3.85,1.47-.12.06-.25.09-.38.09Zm38.46-.93c-.09,0-.19-.02-.29-.05-1.29-.48-2.63-.81-4-.97-.45-.05-.77-.46-.71-.9.05-.45.46-.77.9-.71,1.5.17,2.98.53,4.39,1.06.42.16.63.63.48,1.05-.12.33-.43.53-.76.53Zm-8.52-1.13h-4.33c-.45,0-.81-.36-.81-.81s.36-.81.81-.81h4.33c.45,0,.81.36.81.81s-.36.81-.81.81Zm-8.65,0h-4.33c-.45,0-.81-.36-.81-.81s.36-.81.81-.81h4.33c.45,0,.81.36.81.81s-.36.81-.81.81Zm-8.65,0h-4.29c-.45,0-.83-.36-.83-.81s.35-.81.8-.81h4.33c.45,0,.81.36.81.81s-.36.81-.81.81Z"/>
        <rect class="cls-4" x="183.52" y="294.59" width="54.18" height="54.18" rx="16.25" ry="16.25"/>
        <g>
          <path class="cls-2" d="m213.58,302.72c.83.2,1.4.76,1.99,1.33,2.62,2.56,5.24,5.12,7.88,7.66.67.64,1,1.37.98,2.3-.02,1.17,0,2.34,0,3.51v.42c.58.03,1.13.03,1.68.11,1.74.24,3.18,1.59,3.42,3.18,0,.03.04.06.06.09v6.15c-.25.56-.41,1.17-.76,1.65-.77,1.08-1.89,1.59-3.2,1.67-.38.02-.76,0-1.2,0,0,.18,0,.32,0,.46,0,1.44-.03,2.89,0,4.33.07,2.87-2.27,5.07-5.05,5.06-5.85-.02-11.7,0-17.55,0-2.48,0-4.49-1.65-4.94-4.05-.06-.32-.07-.66-.07-.99,0-1.44,0-2.89,0-4.33,0-.14,0-.29,0-.4-.72-.08-1.41-.08-2.06-.23-1.88-.41-3.09-1.97-3.09-3.89,0-1.55.04-3.11,0-4.66-.07-2.32,1.81-3.99,3.99-4.1.37-.02.74,0,1.17,0,0-.18,0-.33,0-.49,0-3.2.04-6.39-.01-9.59-.05-2.91,2.09-4.87,4.28-5.13.05,0,.09-.03.14-.05h12.37Zm-3,27.63c4.39,0,8.79,0,13.18,0,.62,0,1.23.01,1.85-.01,1.95-.07,3.45-1.57,3.47-3.48.02-1.65.01-3.31,0-4.96-.01-1.49-.75-2.54-2.09-3.12-.55-.24-1.19-.35-1.79-.35-9.72-.02-19.45-.01-29.17-.01-.14,0-.27,0-.41,0-1.93.08-3.44,1.56-3.47,3.44-.02,1.68-.01,3.36,0,5.03,0,1.33.65,2.29,1.79,2.95.66.38,1.38.5,2.13.5,4.84,0,9.67,0,14.51,0Zm-13.38-12.4h26.79v-4.64c-.18,0-.31,0-.45,0-2.42,0-4.84,0-7.26,0-1.35,0-2.19-.85-2.19-2.2,0-2.28,0-4.57,0-6.85,0-1.12-.05-1.16-1.2-1.16-3.65,0-7.31.02-10.96,0-2.73-.02-4.8,2.16-4.75,4.74.06,3.23.02,6.47.02,9.7,0,.13,0,.27,0,.43Zm.02,12.86c0,.1-.02.18-.02.26,0,1.6-.01,3.21.01,4.81,0,.41.08.84.21,1.23.59,1.89,2.35,3.14,4.42,3.14,4.43,0,8.86,0,13.29,0,1.48,0,2.96.02,4.44,0,2.49-.05,4.44-2.03,4.46-4.51.01-1.53,0-3.06,0-4.59,0-.11-.01-.22-.02-.34h-26.79Zm17.32-22.92c0,1.12,0,2.24,0,3.37,0,.88.65,1.59,1.51,1.6,2.27.02,4.54.01,6.81,0,.13,0,.33-.1.38-.21.05-.11-.03-.31-.11-.42-.26-.3-.55-.57-.83-.85-2.35-2.36-4.69-4.72-7.05-7.07-.13-.13-.35-.16-.53-.24-.06.18-.16.35-.17.53-.02,1.1,0,2.19,0,3.29Z"/>
          <path class="cls-2" d="m212.17,327.85h-1.08v-2.96h-1.25v2.96h-1.06v-6.95h1.06v2.96h1.24v-2.97h1.1v6.95Z"/>
          <path class="cls-2" d="m214.1,327.85h-1.08v-7.01c.75.04,1.49.03,2.21.13.59.09.92.55.97,1.12.05.63.08,1.29,0,1.92-.1.8-.61,1.19-1.43,1.22-.21,0-.41,0-.67,0v2.62Zm.01-3.6c.21,0,.39.01.56,0,.26-.02.45-.16.46-.44.01-.5.03-1.01-.02-1.51-.01-.15-.23-.33-.39-.39-.18-.07-.4-.02-.61-.02v2.35Z"/>
          <path class="cls-2" d="m205.01,320.94c.72,0,1.42-.05,2.11.02.6.06.98.5,1.04,1.09.07.63.08,1.28.02,1.91-.08.82-.59,1.24-1.41,1.27-.21,0-.42,0-.67,0v2.62h-1.09v-6.91Zm1.1.95v2.36c.17,0,.31,0,.46,0,.34,0,.55-.16.56-.5.02-.45.02-.91,0-1.36-.01-.31-.19-.5-.52-.5-.16,0-.31,0-.49,0Z"/>
          <path class="cls-2" d="m210.66,336.18c2.61,0,5.23,0,7.84,0,.11,0,.24-.03.33.01.1.05.24.17.24.25,0,.09-.14.19-.25.25-.06.04-.17,0-.25,0-5.3,0-10.6,0-15.91,0-.11,0-.24.02-.33-.02-.08-.04-.17-.16-.17-.24,0-.08.1-.2.18-.24.09-.04.22-.02.33-.02,2.66,0,5.33,0,7.99,0Z"/>
          <path class="cls-2" d="m210.61,334.92c-2.63,0-5.26,0-7.88,0-.12,0-.26.02-.36-.03-.09-.04-.2-.17-.2-.26,0-.08.13-.2.22-.23.11-.04.24-.02.37-.02,5.24,0,10.49,0,15.73,0,.22,0,.58-.13.58.25,0,.37-.35.27-.57.27-2.63,0-5.26,0-7.88,0Z"/>
        </g>
      </g>
    </g>
    <g>
      <g>
        <text class="cls-1" transform="translate(271.86 515.9)"><tspan x="0" y="0">Programming Languages:</tspan></text>
        <text class="cls-5" transform="translate(271.86 582.03)"><tspan x="0" y="0">PHP, JavaScript, HTML5, CSS3</tspan></text>
      </g>
      <g>
        <path class="cls-3" d="m222.6,544.93h-4.4c-.45,0-.81-.36-.81-.81s.36-.81.81-.81h4.4c.45,0,.81.36.81.81s-.36.81-.81.81Zm-8.72,0h-4.33c-.45,0-.81-.36-.81-.81s.36-.81.81-.81h4.33c.45,0,.81.36.81.81s-.36.81-.81.81Zm-8.65,0h-4.33c-.45,0-.81-.36-.81-.81s.36-.81.81-.81h4.33c.45,0,.81.36.81.81s-.36.81-.81.81Zm-8.65-.12s-.06,0-.1,0c-1.5-.18-2.98-.54-4.39-1.07-.42-.16-.63-.63-.47-1.05.16-.42.63-.63,1.05-.47,1.29.48,2.63.81,4,.97.45.05.76.46.71.9-.05.41-.4.72-.81.72Zm30.3-.41c-.36,0-.7-.25-.79-.62-.11-.44.16-.88.59-.99,1.33-.33,2.63-.83,3.84-1.48.4-.21.89-.06,1.1.34.21.4.06.89-.34,1.1-1.33.71-2.75,1.25-4.21,1.62-.07.02-.13.02-.2.02Zm-38.32-2.61c-.16,0-.32-.05-.46-.14-1.24-.85-2.38-1.86-3.38-2.99-.3-.34-.27-.85.07-1.15.34-.3.85-.27,1.15.07.92,1.03,1.96,1.95,3.09,2.73.37.25.46.76.21,1.13-.16.23-.41.35-.67.35Zm45.89-1.4c-.22,0-.45-.09-.61-.27-.3-.33-.27-.85.06-1.15,1.03-.92,1.94-1.96,2.72-3.1.25-.37.76-.46,1.13-.21.37.25.47.76.21,1.13-.85,1.24-1.85,2.38-2.98,3.39-.16.14-.35.21-.54.21Zm-51.58-5c-.29,0-.57-.16-.72-.43-.71-1.34-1.25-2.75-1.61-4.22-.11-.44.16-.88.59-.98.44-.11.88.16.98.59.33,1.33.82,2.63,1.47,3.85.21.4.06.89-.34,1.1-.12.06-.25.09-.38.09Zm56.42-2.07c-.09,0-.19-.02-.28-.05-.42-.16-.63-.63-.48-1.05.48-1.29.81-2.64.96-4.01.05-.45.46-.76.9-.71.45.05.77.45.71.9-.17,1.5-.53,2.98-1.05,4.39-.12.33-.43.53-.76.53Zm-58.47-6.25c-.45,0-.81-.36-.81-.8v-4.33c0-.45.36-.81.81-.81s.81.36.81.81v4.31c0,.45-.36.82-.81.82Zm59.6-2.27c-.45,0-.81-.36-.81-.81v-4.33c0-.45.36-.81.81-.81s.81.36.81.81v4.33c0,.45-.36.81-.81.81Zm-59.6-6.38c-.45,0-.81-.36-.81-.81v-4.33c0-.45.36-.81.81-.81s.81.36.81.81v4.33c0,.45-.36.81-.81.81Zm59.6-2.28c-.45,0-.81-.36-.81-.81v-4.33c0-.45.36-.81.81-.81s.81.36.81.81v4.33c0,.45-.36.81-.81.81Zm-59.6-6.38c-.45,0-.81-.36-.81-.81v-4.33c0-.45.36-.81.81-.81s.81.36.81.81v4.33c0,.45-.36.81-.81.81Zm59.6-2.28c-.45,0-.81-.36-.81-.81v-4.28c0-.45.36-.84.81-.84s.81.34.81.79v4.33c0,.45-.36.81-.81.81Zm-59.48-6.37s-.06,0-.1,0c-.45-.05-.77-.46-.71-.9.18-1.5.53-2.98,1.06-4.39.16-.42.63-.63,1.05-.47.42.16.63.63.47,1.05-.48,1.29-.81,2.63-.97,4-.05.41-.4.72-.81.72Zm58.95-2.24c-.36,0-.7-.25-.79-.62-.33-1.33-.83-2.63-1.47-3.84-.21-.4-.06-.89.34-1.1.4-.21.89-.06,1.1.34.71,1.33,1.25,2.75,1.61,4.21.11.44-.16.88-.59.98-.07.02-.13.02-.2.02Zm-55.93-5.78c-.16,0-.32-.05-.46-.14-.37-.25-.46-.76-.21-1.13.85-1.24,1.86-2.38,2.98-3.38.34-.3.85-.27,1.15.07.3.33.27.85-.07,1.15-1.03.92-1.95,1.96-2.72,3.09-.16.23-.41.35-.67.35Zm51.93-1.79c-.22,0-.45-.09-.61-.27-.92-1.03-1.96-1.94-3.09-2.72-.37-.25-.46-.76-.21-1.13.25-.37.76-.46,1.13-.21,1.24.85,2.38,1.86,3.39,2.98.3.33.27.85-.07,1.15-.16.14-.35.21-.54.21Zm-45.53-3.91c-.29,0-.57-.16-.72-.43-.21-.4-.06-.89.34-1.1,1.33-.71,2.75-1.25,4.21-1.61.44-.11.88.16.98.59.11.44-.16.88-.59.98-1.34.33-2.63.83-3.85,1.47-.12.06-.25.09-.38.09Zm38.46-.93c-.09,0-.19-.02-.29-.05-1.29-.48-2.63-.81-4-.97-.45-.05-.77-.46-.71-.9.05-.45.46-.77.9-.71,1.5.17,2.98.53,4.39,1.06.42.16.63.63.48,1.05-.12.33-.43.53-.76.53Zm-8.52-1.13h-4.33c-.45,0-.81-.36-.81-.81s.36-.81.81-.81h4.33c.45,0,.81.36.81.81s-.36.81-.81.81Zm-8.65,0h-4.33c-.45,0-.81-.36-.81-.81s.36-.81.81-.81h4.33c.45,0,.81.36.81.81s-.36.81-.81.81Zm-8.65,0h-4.29c-.45,0-.83-.36-.83-.81s.35-.81.8-.81h4.33c.45,0,.81.36.81.81s-.36.81-.81.81Z"/>
        <rect class="cls-4" x="183.52" y="487.23" width="54.18" height="54.18" rx="16.25" ry="16.25"/>
        <g>
          <path class="cls-2" d="m213.58,495.36c.83.2,1.4.76,1.99,1.33,2.62,2.56,5.24,5.12,7.88,7.66.67.64,1,1.37.98,2.3-.02,1.17,0,2.34,0,3.51v.42c.58.03,1.13.03,1.68.11,1.74.24,3.18,1.59,3.42,3.18,0,.03.04.06.06.09v6.15c-.25.56-.41,1.17-.76,1.65-.77,1.08-1.89,1.59-3.2,1.67-.38.02-.76,0-1.2,0,0,.18,0,.32,0,.46,0,1.44-.03,2.89,0,4.33.07,2.87-2.27,5.07-5.05,5.06-5.85-.02-11.7,0-17.55,0-2.48,0-4.49-1.65-4.94-4.05-.06-.32-.07-.66-.07-.99,0-1.44,0-2.89,0-4.33,0-.14,0-.29,0-.4-.72-.08-1.41-.08-2.06-.23-1.88-.41-3.09-1.97-3.09-3.89,0-1.55.04-3.11,0-4.66-.07-2.32,1.81-3.99,3.99-4.1.37-.02.74,0,1.17,0,0-.18,0-.33,0-.49,0-3.2.04-6.39-.01-9.59-.05-2.91,2.09-4.87,4.28-5.13.05,0,.09-.03.14-.05h12.37Zm-3,27.63c4.39,0,8.79,0,13.18,0,.62,0,1.23.01,1.85-.01,1.95-.07,3.45-1.57,3.47-3.48.02-1.65.01-3.31,0-4.96-.01-1.49-.75-2.54-2.09-3.12-.55-.24-1.19-.35-1.79-.35-9.72-.02-19.45-.01-29.17-.01-.14,0-.27,0-.41,0-1.93.08-3.44,1.56-3.47,3.44-.02,1.68-.01,3.36,0,5.03,0,1.33.65,2.29,1.79,2.95.66.38,1.38.5,2.13.5,4.84,0,9.67,0,14.51,0Zm-13.38-12.4h26.79v-4.64c-.18,0-.31,0-.45,0-2.42,0-4.84,0-7.26,0-1.35,0-2.19-.85-2.19-2.2,0-2.28,0-4.57,0-6.85,0-1.12-.05-1.16-1.2-1.16-3.65,0-7.31.02-10.96,0-2.73-.02-4.8,2.16-4.75,4.74.06,3.23.02,6.47.02,9.7,0,.13,0,.27,0,.43Zm.02,12.86c0,.1-.02.18-.02.26,0,1.6-.01,3.21.01,4.81,0,.41.08.84.21,1.23.59,1.89,2.35,3.14,4.42,3.14,4.43,0,8.86,0,13.29,0,1.48,0,2.96.02,4.44,0,2.49-.05,4.44-2.03,4.46-4.51.01-1.53,0-3.06,0-4.59,0-.11-.01-.22-.02-.34h-26.79Zm17.32-22.92c0,1.12,0,2.24,0,3.37,0,.88.65,1.59,1.51,1.6,2.27.02,4.54.01,6.81,0,.13,0,.33-.1.38-.21.05-.11-.03-.31-.11-.42-.26-.3-.55-.57-.83-.85-2.35-2.36-4.69-4.72-7.05-7.07-.13-.13-.35-.16-.53-.24-.06.18-.16.35-.17.53-.02,1.1,0,2.19,0,3.29Z"/>
          <path class="cls-2" d="m212.17,520.5h-1.08v-2.96h-1.25v2.96h-1.06v-6.95h1.06v2.96h1.24v-2.97h1.1v6.95Z"/>
          <path class="cls-2" d="m214.1,520.5h-1.08v-7.01c.75.04,1.49.03,2.21.13.59.09.92.55.97,1.12.05.63.08,1.29,0,1.92-.1.8-.61,1.19-1.43,1.22-.21,0-.41,0-.67,0v2.62Zm.01-3.6c.21,0,.39.01.56,0,.26-.02.45-.16.46-.44.01-.5.03-1.01-.02-1.51-.01-.15-.23-.33-.39-.39-.18-.07-.4-.02-.61-.02v2.35Z"/>
          <path class="cls-2" d="m205.01,513.58c.72,0,1.42-.05,2.11.02.6.06.98.5,1.04,1.09.07.63.08,1.28.02,1.91-.08.82-.59,1.24-1.41,1.27-.21,0-.42,0-.67,0v2.62h-1.09v-6.91Zm1.1.95v2.36c.17,0,.31,0,.46,0,.34,0,.55-.16.56-.5.02-.45.02-.91,0-1.36-.01-.31-.19-.5-.52-.5-.16,0-.31,0-.49,0Z"/>
          <path class="cls-2" d="m210.66,528.83c2.61,0,5.23,0,7.84,0,.11,0,.24-.03.33.01.1.05.24.17.24.25,0,.09-.14.19-.25.25-.06.04-.17,0-.25,0-5.3,0-10.6,0-15.91,0-.11,0-.24.02-.33-.02-.08-.04-.17-.16-.17-.24,0-.08.1-.2.18-.24.09-.04.22-.02.33-.02,2.66,0,5.33,0,7.99,0Z"/>
          <path class="cls-2" d="m210.61,527.56c-2.63,0-5.26,0-7.88,0-.12,0-.26.02-.36-.03-.09-.04-.2-.17-.2-.26,0-.08.13-.2.22-.23.11-.04.24-.02.37-.02,5.24,0,10.49,0,15.73,0,.22,0,.58-.13.58.25,0,.37-.35.27-.57.27-2.63,0-5.26,0-7.88,0Z"/>
        </g>
      </g>
    </g>
    <g>
      <g>
        <text class="cls-1" transform="translate(271.86 707.69)"><tspan x="0" y="0">Programming Languages:</tspan></text>
        <text class="cls-5" transform="translate(271.86 773.82)"><tspan x="0" y="0">PHP, JavaScript, HTML5, CSS3</tspan></text>
      </g>
      <g>
        <path class="cls-3" d="m222.6,736.72h-4.4c-.45,0-.81-.36-.81-.81s.36-.81.81-.81h4.4c.45,0,.81.36.81.81s-.36.81-.81.81Zm-8.72,0h-4.33c-.45,0-.81-.36-.81-.81s.36-.81.81-.81h4.33c.45,0,.81.36.81.81s-.36.81-.81.81Zm-8.65,0h-4.33c-.45,0-.81-.36-.81-.81s.36-.81.81-.81h4.33c.45,0,.81.36.81.81s-.36.81-.81.81Zm-8.65-.12s-.06,0-.1,0c-1.5-.18-2.98-.54-4.39-1.07-.42-.16-.63-.63-.47-1.05.16-.42.63-.63,1.05-.47,1.29.48,2.63.81,4,.97.45.05.76.46.71.9-.05.41-.4.72-.81.72Zm30.3-.41c-.36,0-.7-.25-.79-.62-.11-.44.16-.88.59-.99,1.33-.33,2.63-.83,3.84-1.48.4-.21.89-.06,1.1.34.21.4.06.89-.34,1.1-1.33.71-2.75,1.25-4.21,1.62-.07.02-.13.02-.2.02Zm-38.32-2.61c-.16,0-.32-.05-.46-.14-1.24-.85-2.38-1.86-3.38-2.99-.3-.34-.27-.85.07-1.15.34-.3.85-.27,1.15.07.92,1.03,1.96,1.95,3.09,2.73.37.25.46.76.21,1.13-.16.23-.41.35-.67.35Zm45.89-1.4c-.22,0-.45-.09-.61-.27-.3-.33-.27-.85.06-1.15,1.03-.92,1.94-1.96,2.72-3.1.25-.37.76-.46,1.13-.21.37.25.47.76.21,1.13-.85,1.24-1.85,2.38-2.98,3.39-.16.14-.35.21-.54.21Zm-51.58-5c-.29,0-.57-.16-.72-.43-.71-1.34-1.25-2.75-1.61-4.22-.11-.44.16-.88.59-.98.44-.11.88.16.98.59.33,1.33.82,2.63,1.47,3.85.21.4.06.89-.34,1.1-.12.06-.25.09-.38.09Zm56.42-2.07c-.09,0-.19-.02-.28-.05-.42-.16-.63-.63-.48-1.05.48-1.29.81-2.64.96-4.01.05-.45.46-.76.9-.71.45.05.77.45.71.9-.17,1.5-.53,2.98-1.05,4.39-.12.33-.43.53-.76.53Zm-58.47-6.25c-.45,0-.81-.36-.81-.8v-4.33c0-.45.36-.81.81-.81s.81.36.81.81v4.31c0,.45-.36.82-.81.82Zm59.6-2.27c-.45,0-.81-.36-.81-.81v-4.33c0-.45.36-.81.81-.81s.81.36.81.81v4.33c0,.45-.36.81-.81.81Zm-59.6-6.38c-.45,0-.81-.36-.81-.81v-4.33c0-.45.36-.81.81-.81s.81.36.81.81v4.33c0,.45-.36.81-.81.81Zm59.6-2.28c-.45,0-.81-.36-.81-.81v-4.33c0-.45.36-.81.81-.81s.81.36.81.81v4.33c0,.45-.36.81-.81.81Zm-59.6-6.38c-.45,0-.81-.36-.81-.81v-4.33c0-.45.36-.81.81-.81s.81.36.81.81v4.33c0,.45-.36.81-.81.81Zm59.6-2.28c-.45,0-.81-.36-.81-.81v-4.28c0-.45.36-.84.81-.84s.81.34.81.79v4.33c0,.45-.36.81-.81.81Zm-59.48-6.37s-.06,0-.1,0c-.45-.05-.77-.46-.71-.9.18-1.5.53-2.98,1.06-4.39.16-.42.63-.63,1.05-.47.42.16.63.63.47,1.05-.48,1.29-.81,2.63-.97,4-.05.41-.4.72-.81.72Zm58.95-2.24c-.36,0-.7-.25-.79-.62-.33-1.33-.83-2.63-1.47-3.84-.21-.4-.06-.89.34-1.1.4-.21.89-.06,1.1.34.71,1.33,1.25,2.75,1.61,4.21.11.44-.16.88-.59.98-.07.02-.13.02-.2.02Zm-55.93-5.78c-.16,0-.32-.05-.46-.14-.37-.25-.46-.76-.21-1.13.85-1.24,1.86-2.38,2.98-3.38.34-.3.85-.27,1.15.07.3.33.27.85-.07,1.15-1.03.92-1.95,1.96-2.72,3.09-.16.23-.41.35-.67.35Zm51.93-1.79c-.22,0-.45-.09-.61-.27-.92-1.03-1.96-1.94-3.09-2.72-.37-.25-.46-.76-.21-1.13.25-.37.76-.46,1.13-.21,1.24.85,2.38,1.86,3.39,2.98.3.33.27.85-.07,1.15-.16.14-.35.21-.54.21Zm-45.53-3.91c-.29,0-.57-.16-.72-.43-.21-.4-.06-.89.34-1.1,1.33-.71,2.75-1.25,4.21-1.61.44-.11.88.16.98.59.11.44-.16.88-.59.98-1.34.33-2.63.83-3.85,1.47-.12.06-.25.09-.38.09Zm38.46-.93c-.09,0-.19-.02-.29-.05-1.29-.48-2.63-.81-4-.97-.45-.05-.77-.46-.71-.9.05-.45.46-.77.9-.71,1.5.17,2.98.53,4.39,1.06.42.16.63.63.48,1.05-.12.33-.43.53-.76.53Zm-8.52-1.13h-4.33c-.45,0-.81-.36-.81-.81s.36-.81.81-.81h4.33c.45,0,.81.36.81.81s-.36.81-.81.81Zm-8.65,0h-4.33c-.45,0-.81-.36-.81-.81s.36-.81.81-.81h4.33c.45,0,.81.36.81.81s-.36.81-.81.81Zm-8.65,0h-4.29c-.45,0-.83-.36-.83-.81s.35-.81.8-.81h4.33c.45,0,.81.36.81.81s-.36.81-.81.81Z"/>
        <rect class="cls-4" x="183.52" y="679.02" width="54.18" height="54.18" rx="16.25" ry="16.25"/>
        <g>
          <path class="cls-2" d="m213.58,687.15c.83.2,1.4.76,1.99,1.33,2.62,2.56,5.24,5.12,7.88,7.66.67.64,1,1.37.98,2.3-.02,1.17,0,2.34,0,3.51v.42c.58.03,1.13.03,1.68.11,1.74.24,3.18,1.59,3.42,3.18,0,.03.04.06.06.09v6.15c-.25.56-.41,1.17-.76,1.65-.77,1.08-1.89,1.59-3.2,1.67-.38.02-.76,0-1.2,0,0,.18,0,.32,0,.46,0,1.44-.03,2.89,0,4.33.07,2.87-2.27,5.07-5.05,5.06-5.85-.02-11.7,0-17.55,0-2.48,0-4.49-1.65-4.94-4.05-.06-.32-.07-.66-.07-.99,0-1.44,0-2.89,0-4.33,0-.14,0-.29,0-.4-.72-.08-1.41-.08-2.06-.23-1.88-.41-3.09-1.97-3.09-3.89,0-1.55.04-3.11,0-4.66-.07-2.32,1.81-3.99,3.99-4.1.37-.02.74,0,1.17,0,0-.18,0-.33,0-.49,0-3.2.04-6.39-.01-9.59-.05-2.91,2.09-4.87,4.28-5.13.05,0,.09-.03.14-.05h12.37Zm-3,27.63c4.39,0,8.79,0,13.18,0,.62,0,1.23.01,1.85-.01,1.95-.07,3.45-1.57,3.47-3.48.02-1.65.01-3.31,0-4.96-.01-1.49-.75-2.54-2.09-3.12-.55-.24-1.19-.35-1.79-.35-9.72-.02-19.45-.01-29.17-.01-.14,0-.27,0-.41,0-1.93.08-3.44,1.56-3.47,3.44-.02,1.68-.01,3.36,0,5.03,0,1.33.65,2.29,1.79,2.95.66.38,1.38.5,2.13.5,4.84,0,9.67,0,14.51,0Zm-13.38-12.4h26.79v-4.64c-.18,0-.31,0-.45,0-2.42,0-4.84,0-7.26,0-1.35,0-2.19-.85-2.19-2.2,0-2.28,0-4.57,0-6.85,0-1.12-.05-1.16-1.2-1.16-3.65,0-7.31.02-10.96,0-2.73-.02-4.8,2.16-4.75,4.74.06,3.23.02,6.47.02,9.7,0,.13,0,.27,0,.43Zm.02,12.86c0,.1-.02.18-.02.26,0,1.6-.01,3.21.01,4.81,0,.41.08.84.21,1.23.59,1.89,2.35,3.14,4.42,3.14,4.43,0,8.86,0,13.29,0,1.48,0,2.96.02,4.44,0,2.49-.05,4.44-2.03,4.46-4.51.01-1.53,0-3.06,0-4.59,0-.11-.01-.22-.02-.34h-26.79Zm17.32-22.92c0,1.12,0,2.24,0,3.37,0,.88.65,1.59,1.51,1.6,2.27.02,4.54.01,6.81,0,.13,0,.33-.1.38-.21.05-.11-.03-.31-.11-.42-.26-.3-.55-.57-.83-.85-2.35-2.36-4.69-4.72-7.05-7.07-.13-.13-.35-.16-.53-.24-.06.18-.16.35-.17.53-.02,1.1,0,2.19,0,3.29Z"/>
          <path class="cls-2" d="m212.17,712.29h-1.08v-2.96h-1.25v2.96h-1.06v-6.95h1.06v2.96h1.24v-2.97h1.1v6.95Z"/>
          <path class="cls-2" d="m214.1,712.29h-1.08v-7.01c.75.04,1.49.03,2.21.13.59.09.92.55.97,1.12.05.63.08,1.29,0,1.92-.1.8-.61,1.19-1.43,1.22-.21,0-.41,0-.67,0v2.62Zm.01-3.6c.21,0,.39.01.56,0,.26-.02.45-.16.46-.44.01-.5.03-1.01-.02-1.51-.01-.15-.23-.33-.39-.39-.18-.07-.4-.02-.61-.02v2.35Z"/>
          <path class="cls-2" d="m205.01,705.37c.72,0,1.42-.05,2.11.02.6.06.98.5,1.04,1.09.07.63.08,1.28.02,1.91-.08.82-.59,1.24-1.41,1.27-.21,0-.42,0-.67,0v2.62h-1.09v-6.91Zm1.1.95v2.36c.17,0,.31,0,.46,0,.34,0,.55-.16.56-.5.02-.45.02-.91,0-1.36-.01-.31-.19-.5-.52-.5-.16,0-.31,0-.49,0Z"/>
          <path class="cls-2" d="m210.66,720.62c2.61,0,5.23,0,7.84,0,.11,0,.24-.03.33.01.1.05.24.17.24.25,0,.09-.14.19-.25.25-.06.04-.17,0-.25,0-5.3,0-10.6,0-15.91,0-.11,0-.24.02-.33-.02-.08-.04-.17-.16-.17-.24,0-.08.1-.2.18-.24.09-.04.22-.02.33-.02,2.66,0,5.33,0,7.99,0Z"/>
          <path class="cls-2" d="m210.61,719.35c-2.63,0-5.26,0-7.88,0-.12,0-.26.02-.36-.03-.09-.04-.2-.17-.2-.26,0-.08.13-.2.22-.23.11-.04.24-.02.37-.02,5.24,0,10.49,0,15.73,0,.22,0,.58-.13.58.25,0,.37-.35.27-.57.27-2.63,0-5.26,0-7.88,0Z"/>
        </g>
      </g>
    </g>
    <line class="cls-6" x1="212.45" y1="358.1" x2="212.45" y2="483.84"/>
    <line class="cls-6" x1="212.45" y1="551.09" x2="212.45" y2="676.84"/>
    <g>
      <g>
        <text class="cls-1" transform="translate(1162.52 323.26)"><tspan x="0" y="0">Programming Languages:</tspan></text>
        <text class="cls-5" transform="translate(1162.52 389.38)"><tspan x="0" y="0">PHP, JavaScript, HTML5, CSS3</tspan></text>
      </g>
      <g>
        <path class="cls-3" d="m1113.26,352.29h-4.4c-.45,0-.81-.36-.81-.81s.36-.81.81-.81h4.4c.45,0,.81.36.81.81s-.36.81-.81.81Zm-8.72,0h-4.33c-.45,0-.81-.36-.81-.81s.36-.81.81-.81h4.33c.45,0,.81.36.81.81s-.36.81-.81.81Zm-8.65,0h-4.33c-.45,0-.81-.36-.81-.81s.36-.81.81-.81h4.33c.45,0,.81.36.81.81s-.36.81-.81.81Zm-8.65-.12s-.06,0-.1,0c-1.5-.18-2.98-.54-4.39-1.07-.42-.16-.63-.63-.47-1.05.16-.42.63-.63,1.05-.47,1.29.48,2.63.81,4,.97.45.05.76.46.71.9-.05.41-.4.72-.81.72Zm30.3-.41c-.36,0-.7-.25-.79-.62-.11-.44.16-.88.59-.99,1.33-.33,2.63-.83,3.84-1.48.4-.21.89-.06,1.1.34.21.4.06.89-.34,1.1-1.33.71-2.75,1.25-4.21,1.62-.07.02-.13.02-.2.02Zm-38.32-2.61c-.16,0-.32-.05-.46-.14-1.24-.85-2.38-1.86-3.38-2.99-.3-.34-.27-.85.07-1.15.34-.3.85-.27,1.15.07.92,1.03,1.96,1.95,3.09,2.73.37.25.46.76.21,1.13-.16.23-.41.35-.67.35Zm45.89-1.4c-.22,0-.45-.09-.61-.27-.3-.33-.27-.85.06-1.15,1.03-.92,1.94-1.96,2.72-3.1.25-.37.76-.46,1.13-.21.37.25.47.76.21,1.13-.85,1.24-1.85,2.38-2.98,3.39-.16.14-.35.21-.54.21Zm-51.58-5c-.29,0-.57-.16-.72-.43-.71-1.34-1.25-2.75-1.61-4.22-.11-.44.16-.88.59-.98.44-.11.88.16.98.59.33,1.33.82,2.63,1.47,3.85.21.4.06.89-.34,1.1-.12.06-.25.09-.38.09Zm56.42-2.07c-.09,0-.19-.02-.28-.05-.42-.16-.63-.63-.48-1.05.48-1.29.81-2.64.96-4.01.05-.45.46-.76.9-.71.45.05.77.45.71.9-.17,1.5-.53,2.98-1.05,4.39-.12.33-.43.53-.76.53Zm-58.47-6.25c-.45,0-.81-.36-.81-.8v-4.33c0-.45.36-.81.81-.81s.81.36.81.81v4.31c0,.45-.36.82-.81.82Zm59.6-2.27c-.45,0-.81-.36-.81-.81v-4.33c0-.45.36-.81.81-.81s.81.36.81.81v4.33c0,.45-.36.81-.81.81Zm-59.6-6.38c-.45,0-.81-.36-.81-.81v-4.33c0-.45.36-.81.81-.81s.81.36.81.81v4.33c0,.45-.36.81-.81.81Zm59.6-2.28c-.45,0-.81-.36-.81-.81v-4.33c0-.45.36-.81.81-.81s.81.36.81.81v4.33c0,.45-.36.81-.81.81Zm-59.6-6.38c-.45,0-.81-.36-.81-.81v-4.33c0-.45.36-.81.81-.81s.81.36.81.81v4.33c0,.45-.36.81-.81.81Zm59.6-2.28c-.45,0-.81-.36-.81-.81v-4.28c0-.45.36-.84.81-.84s.81.34.81.79v4.33c0,.45-.36.81-.81.81Zm-59.48-6.37s-.06,0-.1,0c-.45-.05-.77-.46-.71-.9.18-1.5.53-2.98,1.06-4.39.16-.42.63-.63,1.05-.47.42.16.63.63.47,1.05-.48,1.29-.81,2.63-.97,4-.05.41-.4.72-.81.72Zm58.95-2.24c-.36,0-.7-.25-.79-.62-.33-1.33-.83-2.63-1.47-3.84-.21-.4-.06-.89.34-1.1.4-.21.89-.06,1.1.34.71,1.33,1.25,2.75,1.61,4.21.11.44-.16.88-.59.98-.07.02-.13.02-.2.02Zm-55.93-5.78c-.16,0-.32-.05-.46-.14-.37-.25-.46-.76-.21-1.13.85-1.24,1.86-2.38,2.98-3.38.34-.3.85-.27,1.15.07.3.33.27.85-.07,1.15-1.03.92-1.95,1.96-2.72,3.09-.16.23-.41.35-.67.35Zm51.93-1.79c-.22,0-.45-.09-.61-.27-.92-1.03-1.96-1.94-3.09-2.72-.37-.25-.46-.76-.21-1.13.25-.37.76-.46,1.13-.21,1.24.85,2.38,1.86,3.39,2.98.3.33.27.85-.07,1.15-.16.14-.35.21-.54.21Zm-45.53-3.91c-.29,0-.57-.16-.72-.43-.21-.4-.06-.89.34-1.1,1.33-.71,2.75-1.25,4.21-1.61.44-.11.88.16.98.59.11.44-.16.88-.59.98-1.34.33-2.63.83-3.85,1.47-.12.06-.25.09-.38.09Zm38.46-.93c-.09,0-.19-.02-.29-.05-1.29-.48-2.63-.81-4-.97-.45-.05-.77-.46-.71-.9.05-.45.46-.77.9-.71,1.5.17,2.98.53,4.39,1.06.42.16.63.63.48,1.05-.12.33-.43.53-.76.53Zm-8.52-1.13h-4.33c-.45,0-.81-.36-.81-.81s.36-.81.81-.81h4.33c.45,0,.81.36.81.81s-.36.81-.81.81Zm-8.65,0h-4.33c-.45,0-.81-.36-.81-.81s.36-.81.81-.81h4.33c.45,0,.81.36.81.81s-.36.81-.81.81Zm-8.65,0h-4.29c-.45,0-.83-.36-.83-.81s.35-.81.8-.81h4.33c.45,0,.81.36.81.81s-.36.81-.81.81Z"/>
        <rect class="cls-4" x="1074.18" y="294.59" width="54.18" height="54.18" rx="16.25" ry="16.25"/>
        <g>
          <path class="cls-2" d="m1104.24,302.72c.83.2,1.4.76,1.99,1.33,2.62,2.56,5.24,5.12,7.88,7.66.67.64,1,1.37.98,2.3-.02,1.17,0,2.34,0,3.51v.42c.58.03,1.13.03,1.68.11,1.74.24,3.18,1.59,3.42,3.18,0,.03.04.06.06.09v6.15c-.25.56-.41,1.17-.76,1.65-.77,1.08-1.89,1.59-3.2,1.67-.38.02-.76,0-1.2,0,0,.18,0,.32,0,.46,0,1.44-.03,2.89,0,4.33.07,2.87-2.27,5.07-5.05,5.06-5.85-.02-11.7,0-17.55,0-2.48,0-4.49-1.65-4.94-4.05-.06-.32-.07-.66-.07-.99,0-1.44,0-2.89,0-4.33,0-.14,0-.29,0-.4-.72-.08-1.41-.08-2.06-.23-1.88-.41-3.09-1.97-3.09-3.89,0-1.55.04-3.11,0-4.66-.07-2.32,1.81-3.99,3.99-4.1.37-.02.74,0,1.17,0,0-.18,0-.33,0-.49,0-3.2.04-6.39-.01-9.59-.05-2.91,2.09-4.87,4.28-5.13.05,0,.09-.03.14-.05h12.37Zm-3,27.63c4.39,0,8.79,0,13.18,0,.62,0,1.23.01,1.85-.01,1.95-.07,3.45-1.57,3.47-3.48.02-1.65.01-3.31,0-4.96-.01-1.49-.75-2.54-2.09-3.12-.55-.24-1.19-.35-1.79-.35-9.72-.02-19.45-.01-29.17-.01-.14,0-.27,0-.41,0-1.93.08-3.44,1.56-3.47,3.44-.02,1.68-.01,3.36,0,5.03,0,1.33.65,2.29,1.79,2.95.66.38,1.38.5,2.13.5,4.84,0,9.67,0,14.51,0Zm-13.38-12.4h26.79v-4.64c-.18,0-.31,0-.45,0-2.42,0-4.84,0-7.26,0-1.35,0-2.19-.85-2.19-2.2,0-2.28,0-4.57,0-6.85,0-1.12-.05-1.16-1.2-1.16-3.65,0-7.31.02-10.96,0-2.73-.02-4.8,2.16-4.75,4.74.06,3.23.02,6.47.02,9.7,0,.13,0,.27,0,.43Zm.02,12.86c0,.1-.02.18-.02.26,0,1.6-.01,3.21.01,4.81,0,.41.08.84.21,1.23.59,1.89,2.35,3.14,4.42,3.14,4.43,0,8.86,0,13.29,0,1.48,0,2.96.02,4.44,0,2.49-.05,4.44-2.03,4.46-4.51.01-1.53,0-3.06,0-4.59,0-.11-.01-.22-.02-.34h-26.79Zm17.32-22.92c0,1.12,0,2.24,0,3.37,0,.88.65,1.59,1.51,1.6,2.27.02,4.54.01,6.81,0,.13,0,.33-.1.38-.21.05-.11-.03-.31-.11-.42-.26-.3-.55-.57-.83-.85-2.35-2.36-4.69-4.72-7.05-7.07-.13-.13-.35-.16-.53-.24-.06.18-.16.35-.17.53-.02,1.1,0,2.19,0,3.29Z"/>
          <path class="cls-2" d="m1102.83,327.85h-1.08v-2.96h-1.25v2.96h-1.06v-6.95h1.06v2.96h1.24v-2.97h1.1v6.95Z"/>
          <path class="cls-2" d="m1104.76,327.85h-1.08v-7.01c.75.04,1.49.03,2.21.13.59.09.92.55.97,1.12.05.63.08,1.29,0,1.92-.1.8-.61,1.19-1.43,1.22-.21,0-.41,0-.67,0v2.62Zm.01-3.6c.21,0,.39.01.56,0,.26-.02.45-.16.46-.44.01-.5.03-1.01-.02-1.51-.01-.15-.23-.33-.39-.39-.18-.07-.4-.02-.61-.02v2.35Z"/>
          <path class="cls-2" d="m1095.67,320.94c.72,0,1.42-.05,2.11.02.6.06.98.5,1.04,1.09.07.63.08,1.28.02,1.91-.08.82-.59,1.24-1.41,1.27-.21,0-.42,0-.67,0v2.62h-1.09v-6.91Zm1.1.95v2.36c.17,0,.31,0,.46,0,.34,0,.55-.16.56-.5.02-.45.02-.91,0-1.36-.01-.31-.19-.5-.52-.5-.16,0-.31,0-.49,0Z"/>
          <path class="cls-2" d="m1101.32,336.18c2.61,0,5.23,0,7.84,0,.11,0,.24-.03.33.01.1.05.24.17.24.25,0,.09-.14.19-.25.25-.06.04-.17,0-.25,0-5.3,0-10.6,0-15.91,0-.11,0-.24.02-.33-.02-.08-.04-.17-.16-.17-.24,0-.08.1-.2.18-.24.09-.04.22-.02.33-.02,2.66,0,5.33,0,7.99,0Z"/>
          <path class="cls-2" d="m1101.27,334.92c-2.63,0-5.26,0-7.88,0-.12,0-.26.02-.36-.03-.09-.04-.2-.17-.2-.26,0-.08.13-.2.22-.23.11-.04.24-.02.37-.02,5.24,0,10.49,0,15.73,0,.22,0,.58-.13.58.25,0,.37-.35.27-.57.27-2.63,0-5.26,0-7.88,0Z"/>
        </g>
      </g>
    </g>
    <g>
      <g>
        <text class="cls-1" transform="translate(1162.52 515.9)"><tspan x="0" y="0">Programming Languages:</tspan></text>
        <text class="cls-5" transform="translate(1162.52 582.03)"><tspan x="0" y="0">PHP, JavaScript, HTML5, CSS3</tspan></text>
      </g>
      <g>
        <path class="cls-3" d="m1113.26,544.93h-4.4c-.45,0-.81-.36-.81-.81s.36-.81.81-.81h4.4c.45,0,.81.36.81.81s-.36.81-.81.81Zm-8.72,0h-4.33c-.45,0-.81-.36-.81-.81s.36-.81.81-.81h4.33c.45,0,.81.36.81.81s-.36.81-.81.81Zm-8.65,0h-4.33c-.45,0-.81-.36-.81-.81s.36-.81.81-.81h4.33c.45,0,.81.36.81.81s-.36.81-.81.81Zm-8.65-.12s-.06,0-.1,0c-1.5-.18-2.98-.54-4.39-1.07-.42-.16-.63-.63-.47-1.05.16-.42.63-.63,1.05-.47,1.29.48,2.63.81,4,.97.45.05.76.46.71.9-.05.41-.4.72-.81.72Zm30.3-.41c-.36,0-.7-.25-.79-.62-.11-.44.16-.88.59-.99,1.33-.33,2.63-.83,3.84-1.48.4-.21.89-.06,1.1.34.21.4.06.89-.34,1.1-1.33.71-2.75,1.25-4.21,1.62-.07.02-.13.02-.2.02Zm-38.32-2.61c-.16,0-.32-.05-.46-.14-1.24-.85-2.38-1.86-3.38-2.99-.3-.34-.27-.85.07-1.15.34-.3.85-.27,1.15.07.92,1.03,1.96,1.95,3.09,2.73.37.25.46.76.21,1.13-.16.23-.41.35-.67.35Zm45.89-1.4c-.22,0-.45-.09-.61-.27-.3-.33-.27-.85.06-1.15,1.03-.92,1.94-1.96,2.72-3.1.25-.37.76-.46,1.13-.21.37.25.47.76.21,1.13-.85,1.24-1.85,2.38-2.98,3.39-.16.14-.35.21-.54.21Zm-51.58-5c-.29,0-.57-.16-.72-.43-.71-1.34-1.25-2.75-1.61-4.22-.11-.44.16-.88.59-.98.44-.11.88.16.98.59.33,1.33.82,2.63,1.47,3.85.21.4.06.89-.34,1.1-.12.06-.25.09-.38.09Zm56.42-2.07c-.09,0-.19-.02-.28-.05-.42-.16-.63-.63-.48-1.05.48-1.29.81-2.64.96-4.01.05-.45.46-.76.9-.71.45.05.77.45.71.9-.17,1.5-.53,2.98-1.05,4.39-.12.33-.43.53-.76.53Zm-58.47-6.25c-.45,0-.81-.36-.81-.8v-4.33c0-.45.36-.81.81-.81s.81.36.81.81v4.31c0,.45-.36.82-.81.82Zm59.6-2.27c-.45,0-.81-.36-.81-.81v-4.33c0-.45.36-.81.81-.81s.81.36.81.81v4.33c0,.45-.36.81-.81.81Zm-59.6-6.38c-.45,0-.81-.36-.81-.81v-4.33c0-.45.36-.81.81-.81s.81.36.81.81v4.33c0,.45-.36.81-.81.81Zm59.6-2.28c-.45,0-.81-.36-.81-.81v-4.33c0-.45.36-.81.81-.81s.81.36.81.81v4.33c0,.45-.36.81-.81.81Zm-59.6-6.38c-.45,0-.81-.36-.81-.81v-4.33c0-.45.36-.81.81-.81s.81.36.81.81v4.33c0,.45-.36.81-.81.81Zm59.6-2.28c-.45,0-.81-.36-.81-.81v-4.28c0-.45.36-.84.81-.84s.81.34.81.79v4.33c0,.45-.36.81-.81.81Zm-59.48-6.37s-.06,0-.1,0c-.45-.05-.77-.46-.71-.9.18-1.5.53-2.98,1.06-4.39.16-.42.63-.63,1.05-.47.42.16.63.63.47,1.05-.48,1.29-.81,2.63-.97,4-.05.41-.4.72-.81.72Zm58.95-2.24c-.36,0-.7-.25-.79-.62-.33-1.33-.83-2.63-1.47-3.84-.21-.4-.06-.89.34-1.1.4-.21.89-.06,1.1.34.71,1.33,1.25,2.75,1.61,4.21.11.44-.16.88-.59.98-.07.02-.13.02-.2.02Zm-55.93-5.78c-.16,0-.32-.05-.46-.14-.37-.25-.46-.76-.21-1.13.85-1.24,1.86-2.38,2.98-3.38.34-.3.85-.27,1.15.07.3.33.27.85-.07,1.15-1.03.92-1.95,1.96-2.72,3.09-.16.23-.41.35-.67.35Zm51.93-1.79c-.22,0-.45-.09-.61-.27-.92-1.03-1.96-1.94-3.09-2.72-.37-.25-.46-.76-.21-1.13.25-.37.76-.46,1.13-.21,1.24.85,2.38,1.86,3.39,2.98.3.33.27.85-.07,1.15-.16.14-.35.21-.54.21Zm-45.53-3.91c-.29,0-.57-.16-.72-.43-.21-.4-.06-.89.34-1.1,1.33-.71,2.75-1.25,4.21-1.61.44-.11.88.16.98.59.11.44-.16.88-.59.98-1.34.33-2.63.83-3.85,1.47-.12.06-.25.09-.38.09Zm38.46-.93c-.09,0-.19-.02-.29-.05-1.29-.48-2.63-.81-4-.97-.45-.05-.77-.46-.71-.9.05-.45.46-.77.9-.71,1.5.17,2.98.53,4.39,1.06.42.16.63.63.48,1.05-.12.33-.43.53-.76.53Zm-8.52-1.13h-4.33c-.45,0-.81-.36-.81-.81s.36-.81.81-.81h4.33c.45,0,.81.36.81.81s-.36.81-.81.81Zm-8.65,0h-4.33c-.45,0-.81-.36-.81-.81s.36-.81.81-.81h4.33c.45,0,.81.36.81.81s-.36.81-.81.81Zm-8.65,0h-4.29c-.45,0-.83-.36-.83-.81s.35-.81.8-.81h4.33c.45,0,.81.36.81.81s-.36.81-.81.81Z"/>
        <rect class="cls-4" x="1074.18" y="487.23" width="54.18" height="54.18" rx="16.25" ry="16.25"/>
        <g>
          <path class="cls-2" d="m1104.24,495.36c.83.2,1.4.76,1.99,1.33,2.62,2.56,5.24,5.12,7.88,7.66.67.64,1,1.37.98,2.3-.02,1.17,0,2.34,0,3.51v.42c.58.03,1.13.03,1.68.11,1.74.24,3.18,1.59,3.42,3.18,0,.03.04.06.06.09v6.15c-.25.56-.41,1.17-.76,1.65-.77,1.08-1.89,1.59-3.2,1.67-.38.02-.76,0-1.2,0,0,.18,0,.32,0,.46,0,1.44-.03,2.89,0,4.33.07,2.87-2.27,5.07-5.05,5.06-5.85-.02-11.7,0-17.55,0-2.48,0-4.49-1.65-4.94-4.05-.06-.32-.07-.66-.07-.99,0-1.44,0-2.89,0-4.33,0-.14,0-.29,0-.4-.72-.08-1.41-.08-2.06-.23-1.88-.41-3.09-1.97-3.09-3.89,0-1.55.04-3.11,0-4.66-.07-2.32,1.81-3.99,3.99-4.1.37-.02.74,0,1.17,0,0-.18,0-.33,0-.49,0-3.2.04-6.39-.01-9.59-.05-2.91,2.09-4.87,4.28-5.13.05,0,.09-.03.14-.05h12.37Zm-3,27.63c4.39,0,8.79,0,13.18,0,.62,0,1.23.01,1.85-.01,1.95-.07,3.45-1.57,3.47-3.48.02-1.65.01-3.31,0-4.96-.01-1.49-.75-2.54-2.09-3.12-.55-.24-1.19-.35-1.79-.35-9.72-.02-19.45-.01-29.17-.01-.14,0-.27,0-.41,0-1.93.08-3.44,1.56-3.47,3.44-.02,1.68-.01,3.36,0,5.03,0,1.33.65,2.29,1.79,2.95.66.38,1.38.5,2.13.5,4.84,0,9.67,0,14.51,0Zm-13.38-12.4h26.79v-4.64c-.18,0-.31,0-.45,0-2.42,0-4.84,0-7.26,0-1.35,0-2.19-.85-2.19-2.2,0-2.28,0-4.57,0-6.85,0-1.12-.05-1.16-1.2-1.16-3.65,0-7.31.02-10.96,0-2.73-.02-4.8,2.16-4.75,4.74.06,3.23.02,6.47.02,9.7,0,.13,0,.27,0,.43Zm.02,12.86c0,.1-.02.18-.02.26,0,1.6-.01,3.21.01,4.81,0,.41.08.84.21,1.23.59,1.89,2.35,3.14,4.42,3.14,4.43,0,8.86,0,13.29,0,1.48,0,2.96.02,4.44,0,2.49-.05,4.44-2.03,4.46-4.51.01-1.53,0-3.06,0-4.59,0-.11-.01-.22-.02-.34h-26.79Zm17.32-22.92c0,1.12,0,2.24,0,3.37,0,.88.65,1.59,1.51,1.6,2.27.02,4.54.01,6.81,0,.13,0,.33-.1.38-.21.05-.11-.03-.31-.11-.42-.26-.3-.55-.57-.83-.85-2.35-2.36-4.69-4.72-7.05-7.07-.13-.13-.35-.16-.53-.24-.06.18-.16.35-.17.53-.02,1.1,0,2.19,0,3.29Z"/>
          <path class="cls-2" d="m1102.83,520.5h-1.08v-2.96h-1.25v2.96h-1.06v-6.95h1.06v2.96h1.24v-2.97h1.1v6.95Z"/>
          <path class="cls-2" d="m1104.76,520.5h-1.08v-7.01c.75.04,1.49.03,2.21.13.59.09.92.55.97,1.12.05.63.08,1.29,0,1.92-.1.8-.61,1.19-1.43,1.22-.21,0-.41,0-.67,0v2.62Zm.01-3.6c.21,0,.39.01.56,0,.26-.02.45-.16.46-.44.01-.5.03-1.01-.02-1.51-.01-.15-.23-.33-.39-.39-.18-.07-.4-.02-.61-.02v2.35Z"/>
          <path class="cls-2" d="m1095.67,513.58c.72,0,1.42-.05,2.11.02.6.06.98.5,1.04,1.09.07.63.08,1.28.02,1.91-.08.82-.59,1.24-1.41,1.27-.21,0-.42,0-.67,0v2.62h-1.09v-6.91Zm1.1.95v2.36c.17,0,.31,0,.46,0,.34,0,.55-.16.56-.5.02-.45.02-.91,0-1.36-.01-.31-.19-.5-.52-.5-.16,0-.31,0-.49,0Z"/>
          <path class="cls-2" d="m1101.32,528.83c2.61,0,5.23,0,7.84,0,.11,0,.24-.03.33.01.1.05.24.17.24.25,0,.09-.14.19-.25.25-.06.04-.17,0-.25,0-5.3,0-10.6,0-15.91,0-.11,0-.24.02-.33-.02-.08-.04-.17-.16-.17-.24,0-.08.1-.2.18-.24.09-.04.22-.02.33-.02,2.66,0,5.33,0,7.99,0Z"/>
          <path class="cls-2" d="m1101.27,527.56c-2.63,0-5.26,0-7.88,0-.12,0-.26.02-.36-.03-.09-.04-.2-.17-.2-.26,0-.08.13-.2.22-.23.11-.04.24-.02.37-.02,5.24,0,10.49,0,15.73,0,.22,0,.58-.13.58.25,0,.37-.35.27-.57.27-2.63,0-5.26,0-7.88,0Z"/>
        </g>
      </g>
    </g>
    <g>
      <g>
        <text class="cls-1" transform="translate(1162.52 707.69)"><tspan x="0" y="0">Programming Languages:</tspan></text>
        <text class="cls-5" transform="translate(1162.52 773.82)"><tspan x="0" y="0">PHP, JavaScript, HTML5, CSS3</tspan></text>
      </g>
      <g>
        <path class="cls-3" d="m1113.26,736.72h-4.4c-.45,0-.81-.36-.81-.81s.36-.81.81-.81h4.4c.45,0,.81.36.81.81s-.36.81-.81.81Zm-8.72,0h-4.33c-.45,0-.81-.36-.81-.81s.36-.81.81-.81h4.33c.45,0,.81.36.81.81s-.36.81-.81.81Zm-8.65,0h-4.33c-.45,0-.81-.36-.81-.81s.36-.81.81-.81h4.33c.45,0,.81.36.81.81s-.36.81-.81.81Zm-8.65-.12s-.06,0-.1,0c-1.5-.18-2.98-.54-4.39-1.07-.42-.16-.63-.63-.47-1.05.16-.42.63-.63,1.05-.47,1.29.48,2.63.81,4,.97.45.05.76.46.71.9-.05.41-.4.72-.81.72Zm30.3-.41c-.36,0-.7-.25-.79-.62-.11-.44.16-.88.59-.99,1.33-.33,2.63-.83,3.84-1.48.4-.21.89-.06,1.1.34.21.4.06.89-.34,1.1-1.33.71-2.75,1.25-4.21,1.62-.07.02-.13.02-.2.02Zm-38.32-2.61c-.16,0-.32-.05-.46-.14-1.24-.85-2.38-1.86-3.38-2.99-.3-.34-.27-.85.07-1.15.34-.3.85-.27,1.15.07.92,1.03,1.96,1.95,3.09,2.73.37.25.46.76.21,1.13-.16.23-.41.35-.67.35Zm45.89-1.4c-.22,0-.45-.09-.61-.27-.3-.33-.27-.85.06-1.15,1.03-.92,1.94-1.96,2.72-3.1.25-.37.76-.46,1.13-.21.37.25.47.76.21,1.13-.85,1.24-1.85,2.38-2.98,3.39-.16.14-.35.21-.54.21Zm-51.58-5c-.29,0-.57-.16-.72-.43-.71-1.34-1.25-2.75-1.61-4.22-.11-.44.16-.88.59-.98.44-.11.88.16.98.59.33,1.33.82,2.63,1.47,3.85.21.4.06.89-.34,1.1-.12.06-.25.09-.38.09Zm56.42-2.07c-.09,0-.19-.02-.28-.05-.42-.16-.63-.63-.48-1.05.48-1.29.81-2.64.96-4.01.05-.45.46-.76.9-.71.45.05.77.45.71.9-.17,1.5-.53,2.98-1.05,4.39-.12.33-.43.53-.76.53Zm-58.47-6.25c-.45,0-.81-.36-.81-.8v-4.33c0-.45.36-.81.81-.81s.81.36.81.81v4.31c0,.45-.36.82-.81.82Zm59.6-2.27c-.45,0-.81-.36-.81-.81v-4.33c0-.45.36-.81.81-.81s.81.36.81.81v4.33c0,.45-.36.81-.81.81Zm-59.6-6.38c-.45,0-.81-.36-.81-.81v-4.33c0-.45.36-.81.81-.81s.81.36.81.81v4.33c0,.45-.36.81-.81.81Zm59.6-2.28c-.45,0-.81-.36-.81-.81v-4.33c0-.45.36-.81.81-.81s.81.36.81.81v4.33c0,.45-.36.81-.81.81Zm-59.6-6.38c-.45,0-.81-.36-.81-.81v-4.33c0-.45.36-.81.81-.81s.81.36.81.81v4.33c0,.45-.36.81-.81.81Zm59.6-2.28c-.45,0-.81-.36-.81-.81v-4.28c0-.45.36-.84.81-.84s.81.34.81.79v4.33c0,.45-.36.81-.81.81Zm-59.48-6.37s-.06,0-.1,0c-.45-.05-.77-.46-.71-.9.18-1.5.53-2.98,1.06-4.39.16-.42.63-.63,1.05-.47.42.16.63.63.47,1.05-.48,1.29-.81,2.63-.97,4-.05.41-.4.72-.81.72Zm58.95-2.24c-.36,0-.7-.25-.79-.62-.33-1.33-.83-2.63-1.47-3.84-.21-.4-.06-.89.34-1.1.4-.21.89-.06,1.1.34.71,1.33,1.25,2.75,1.61,4.21.11.44-.16.88-.59.98-.07.02-.13.02-.2.02Zm-55.93-5.78c-.16,0-.32-.05-.46-.14-.37-.25-.46-.76-.21-1.13.85-1.24,1.86-2.38,2.98-3.38.34-.3.85-.27,1.15.07.3.33.27.85-.07,1.15-1.03.92-1.95,1.96-2.72,3.09-.16.23-.41.35-.67.35Zm51.93-1.79c-.22,0-.45-.09-.61-.27-.92-1.03-1.96-1.94-3.09-2.72-.37-.25-.46-.76-.21-1.13.25-.37.76-.46,1.13-.21,1.24.85,2.38,1.86,3.39,2.98.3.33.27.85-.07,1.15-.16.14-.35.21-.54.21Zm-45.53-3.91c-.29,0-.57-.16-.72-.43-.21-.4-.06-.89.34-1.1,1.33-.71,2.75-1.25,4.21-1.61.44-.11.88.16.98.59.11.44-.16.88-.59.98-1.34.33-2.63.83-3.85,1.47-.12.06-.25.09-.38.09Zm38.46-.93c-.09,0-.19-.02-.29-.05-1.29-.48-2.63-.81-4-.97-.45-.05-.77-.46-.71-.9.05-.45.46-.77.9-.71,1.5.17,2.98.53,4.39,1.06.42.16.63.63.48,1.05-.12.33-.43.53-.76.53Zm-8.52-1.13h-4.33c-.45,0-.81-.36-.81-.81s.36-.81.81-.81h4.33c.45,0,.81.36.81.81s-.36.81-.81.81Zm-8.65,0h-4.33c-.45,0-.81-.36-.81-.81s.36-.81.81-.81h4.33c.45,0,.81.36.81.81s-.36.81-.81.81Zm-8.65,0h-4.29c-.45,0-.83-.36-.83-.81s.35-.81.8-.81h4.33c.45,0,.81.36.81.81s-.36.81-.81.81Z"/>
        <rect class="cls-4" x="1074.18" y="679.02" width="54.18" height="54.18" rx="16.25" ry="16.25"/>
        <g>
          <path class="cls-2" d="m1104.24,687.15c.83.2,1.4.76,1.99,1.33,2.62,2.56,5.24,5.12,7.88,7.66.67.64,1,1.37.98,2.3-.02,1.17,0,2.34,0,3.51v.42c.58.03,1.13.03,1.68.11,1.74.24,3.18,1.59,3.42,3.18,0,.03.04.06.06.09v6.15c-.25.56-.41,1.17-.76,1.65-.77,1.08-1.89,1.59-3.2,1.67-.38.02-.76,0-1.2,0,0,.18,0,.32,0,.46,0,1.44-.03,2.89,0,4.33.07,2.87-2.27,5.07-5.05,5.06-5.85-.02-11.7,0-17.55,0-2.48,0-4.49-1.65-4.94-4.05-.06-.32-.07-.66-.07-.99,0-1.44,0-2.89,0-4.33,0-.14,0-.29,0-.4-.72-.08-1.41-.08-2.06-.23-1.88-.41-3.09-1.97-3.09-3.89,0-1.55.04-3.11,0-4.66-.07-2.32,1.81-3.99,3.99-4.1.37-.02.74,0,1.17,0,0-.18,0-.33,0-.49,0-3.2.04-6.39-.01-9.59-.05-2.91,2.09-4.87,4.28-5.13.05,0,.09-.03.14-.05h12.37Zm-3,27.63c4.39,0,8.79,0,13.18,0,.62,0,1.23.01,1.85-.01,1.95-.07,3.45-1.57,3.47-3.48.02-1.65.01-3.31,0-4.96-.01-1.49-.75-2.54-2.09-3.12-.55-.24-1.19-.35-1.79-.35-9.72-.02-19.45-.01-29.17-.01-.14,0-.27,0-.41,0-1.93.08-3.44,1.56-3.47,3.44-.02,1.68-.01,3.36,0,5.03,0,1.33.65,2.29,1.79,2.95.66.38,1.38.5,2.13.5,4.84,0,9.67,0,14.51,0Zm-13.38-12.4h26.79v-4.64c-.18,0-.31,0-.45,0-2.42,0-4.84,0-7.26,0-1.35,0-2.19-.85-2.19-2.2,0-2.28,0-4.57,0-6.85,0-1.12-.05-1.16-1.2-1.16-3.65,0-7.31.02-10.96,0-2.73-.02-4.8,2.16-4.75,4.74.06,3.23.02,6.47.02,9.7,0,.13,0,.27,0,.43Zm.02,12.86c0,.1-.02.18-.02.26,0,1.6-.01,3.21.01,4.81,0,.41.08.84.21,1.23.59,1.89,2.35,3.14,4.42,3.14,4.43,0,8.86,0,13.29,0,1.48,0,2.96.02,4.44,0,2.49-.05,4.44-2.03,4.46-4.51.01-1.53,0-3.06,0-4.59,0-.11-.01-.22-.02-.34h-26.79Zm17.32-22.92c0,1.12,0,2.24,0,3.37,0,.88.65,1.59,1.51,1.6,2.27.02,4.54.01,6.81,0,.13,0,.33-.1.38-.21.05-.11-.03-.31-.11-.42-.26-.3-.55-.57-.83-.85-2.35-2.36-4.69-4.72-7.05-7.07-.13-.13-.35-.16-.53-.24-.06.18-.16.35-.17.53-.02,1.1,0,2.19,0,3.29Z"/>
          <path class="cls-2" d="m1102.83,712.29h-1.08v-2.96h-1.25v2.96h-1.06v-6.95h1.06v2.96h1.24v-2.97h1.1v6.95Z"/>
          <path class="cls-2" d="m1104.76,712.29h-1.08v-7.01c.75.04,1.49.03,2.21.13.59.09.92.55.97,1.12.05.63.08,1.29,0,1.92-.1.8-.61,1.19-1.43,1.22-.21,0-.41,0-.67,0v2.62Zm.01-3.6c.21,0,.39.01.56,0,.26-.02.45-.16.46-.44.01-.5.03-1.01-.02-1.51-.01-.15-.23-.33-.39-.39-.18-.07-.4-.02-.61-.02v2.35Z"/>
          <path class="cls-2" d="m1095.67,705.37c.72,0,1.42-.05,2.11.02.6.06.98.5,1.04,1.09.07.63.08,1.28.02,1.91-.08.82-.59,1.24-1.41,1.27-.21,0-.42,0-.67,0v2.62h-1.09v-6.91Zm1.1.95v2.36c.17,0,.31,0,.46,0,.34,0,.55-.16.56-.5.02-.45.02-.91,0-1.36-.01-.31-.19-.5-.52-.5-.16,0-.31,0-.49,0Z"/>
          <path class="cls-2" d="m1101.32,720.62c2.61,0,5.23,0,7.84,0,.11,0,.24-.03.33.01.1.05.24.17.24.25,0,.09-.14.19-.25.25-.06.04-.17,0-.25,0-5.3,0-10.6,0-15.91,0-.11,0-.24.02-.33-.02-.08-.04-.17-.16-.17-.24,0-.08.1-.2.18-.24.09-.04.22-.02.33-.02,2.66,0,5.33,0,7.99,0Z"/>
          <path class="cls-2" d="m1101.27,719.35c-2.63,0-5.26,0-7.88,0-.12,0-.26.02-.36-.03-.09-.04-.2-.17-.2-.26,0-.08.13-.2.22-.23.11-.04.24-.02.37-.02,5.24,0,10.49,0,15.73,0,.22,0,.58-.13.58.25,0,.37-.35.27-.57.27-2.63,0-5.26,0-7.88,0Z"/>
        </g>
      </g>
    </g>
    <line class="cls-6" x1="1103.11" y1="358.1" x2="1103.11" y2="483.84"/>
    <line class="cls-6" x1="1103.11" y1="551.09" x2="1103.11" y2="676.84"/>
  </g>
</svg>